<?xml version="1.0" standalone="no"?>
<!DOCTYPE svg PUBLIC "-//W3C//DTD SVG 1.1//EN" "http://www.w3.org/Graphics/SVG/1.1/DTD/svg11.dtd" >
<svg xmlns="http://www.w3.org/2000/svg" xmlns:xlink="http://www.w3.org/1999/xlink" version="1.1">
<metadata>
Created by FontForge 20170731 at Wed Aug  2 21:39:13 2006
 By Aleksey,,,
Copyright 2000-2003, The Font Bureau, Inc. Designed by Cyrus Highsmith, Tobias Frere-Jones, and Font Bureau. All rights reserved.
</metadata>
<defs>
<font id="BentonSansCond-Regular" horiz-adv-x="444" >
  <font-face 
    font-family="BentonSans Cond Regular"
    font-weight="400"
    font-stretch="normal"
    units-per-em="1000"
    panose-1="2 0 5 6 3 0 0 2 0 4"
    ascent="800"
    descent="-200"
    x-height="528"
    cap-height="740"
    bbox="-72 -205 1124 946"
    underline-thickness="20"
    underline-position="-173"
    unicode-range="U+0020-FB0C"
  />
<missing-glyph horiz-adv-x="775" 
d="M192 565v25l166 -11l-13 161h86l-14 -161l167 11v-25h24l-11 -166l160 13v-86l-160 14l11 -167h-24v-22l-167 11l14 -162h-86l13 162l-166 -11v22h-24l11 167l-162 -14v86l162 -13l-11 166h24zM540 523l-125 7v-134h133zM361 396v134l-125 -7l-8 -127h133zM415 342v-132
l125 8l8 124h-133zM236 218l125 -8v132h-133z" />
    <glyph glyph-name="ff" unicode="ff" horiz-adv-x="553" 
d="M98 0v461h-77v67h77v80q0 133 141 133q33 0 37 -2v-67q-1 0 -13.5 0.5t-14.5 0.5q-70 0 -70 -67v-78h177v80q0 133 143 133q35 0 39 -2v-65q-1 0 -14.5 0.5t-15.5 0.5q-73 0 -73 -67v-80h99v-67h-99v-461h-79v461h-177v-461h-80z" />
    <glyph glyph-name="fi" unicode="fi" horiz-adv-x="504" 
d="M354 633v87h81v-87h-81zM98 0v461h-77v67h77v80q0 65 36 99t105 34q33 0 37 -2v-67q-1 0 -13.5 0.5t-14.5 0.5q-70 0 -70 -67v-78h94v-67h-94v-461h-80zM355 0v528h79v-528h-79z" />
    <glyph glyph-name="ffi" unicode="ffi" horiz-adv-x="760" 
d="M610 633v87h81v-87h-81zM98 0v461h-77v67h77v80q0 133 141 133q33 0 37 -2v-67q-1 0 -13.5 0.5t-14.5 0.5q-70 0 -70 -67v-78h177v78q0 66 35.5 100.5t104.5 34.5q33 0 37 -2v-67q-1 0 -13.5 0.5t-14.5 0.5q-70 0 -70 -67v-78h94v-67h-94v-461h-79v461h-177v-461h-80z
M611 0v528h79v-528h-79z" />
    <glyph glyph-name="ffl" unicode="ffl" horiz-adv-x="760" 
d="M611 0v740h79v-740h-79zM98 0v461h-77v67h77v80q0 133 141 133q33 0 37 -2v-67q-1 0 -13.5 0.5t-14.5 0.5q-70 0 -70 -67v-78h177v78q0 66 35.5 100.5t104.5 34.5q33 0 37 -2v-67q-1 0 -13.5 0.5t-14.5 0.5q-70 0 -70 -67v-78h94v-67h-94v-461h-79v461h-177v-461h-80z
" />
    <glyph glyph-name="fj" unicode="fj" horiz-adv-x="504" 
d="M354 633v87h81v-87h-81zM98 0v461h-77v67h77v80q0 65 36 99t105 34q33 0 37 -2v-67q-1 0 -13.5 0.5t-14.5 0.5q-70 0 -70 -67v-78h94v-67h-94v-461h-80zM324 -201q-31 0 -41 4v63q10 -2 28 -2q44 0 44 57v607h79v-610q0 -61 -25 -90t-85 -29z" />
    <glyph glyph-name=".notdef" horiz-adv-x="775" 
d="M192 565v25l166 -11l-13 161h86l-14 -161l167 11v-25h24l-11 -166l160 13v-86l-160 14l11 -167h-24v-22l-167 11l14 -162h-86l13 162l-166 -11v22h-24l11 167l-162 -14v86l162 -13l-11 166h24zM540 523l-125 7v-134h133zM361 396v134l-125 -7l-8 -127h133zM415 342v-132
l125 8l8 124h-133zM236 218l125 -8v132h-133z" />
    <glyph glyph-name=".null" horiz-adv-x="0" 
 />
    <glyph glyph-name="nonmarkingreturn" horiz-adv-x="333" 
 />
    <glyph glyph-name="space" unicode=" " horiz-adv-x="199" 
 />
    <glyph glyph-name="exclam" unicode="!" horiz-adv-x="281" 
d="M112 203l-20 537h98l-20 -537h-58zM93 0v100h96v-100h-96z" />
    <glyph glyph-name="quotedbl" unicode="&#x22;" horiz-adv-x="367" 
d="M239 486l-14 199v55h76v-55l-14 -199h-48zM80 486l-15 199v55h78v-55l-14 -199h-49z" />
    <glyph glyph-name="numbersign" unicode="#" horiz-adv-x="612" 
d="M93 0l38 214h-98v66h110l32 180h-105v66h117l38 214h74l-38 -214h142l38 214h74l-38 -214h101v-66h-113l-32 -180h108v-66h-120l-37 -214h-75l38 214h-141l-38 -214h-75zM217 279h142l32 182h-142z" />
    <glyph glyph-name="dollar" unicode="$" horiz-adv-x="559" 
d="M245 0q-142 16 -199 167l71 26q49 -109 131 -124v283q-42 19 -67 33.5t-55 39.5t-44 59t-14 79q0 74 47.5 123t129.5 56v77h64v-78q122 -17 174 -148l-69 -31q-21 47 -46.5 73t-61.5 34v-258q37 -16 58 -26.5t51.5 -31t46.5 -41.5t28.5 -53.5t12.5 -71.5
q0 -80 -52 -130.5t-142 -57.5v-92h-64v93zM248 672q-48 -5 -74 -33.5t-26 -70.5q0 -45 25.5 -74.5t74.5 -55.5v234zM306 67q53 6 84.5 34t31.5 80t-30 84.5t-86 59.5v-258z" />
    <glyph glyph-name="percent" unicode="%" horiz-adv-x="835" 
d="M191 299q-70 0 -108 58.5t-38 168.5t38 168t108 58t107 -58t37 -168q0 -111 -37 -169t-107 -58zM194 0l376 740h70l-376 -740h-70zM646 -10q-70 0 -108 58.5t-38 168.5t38 168t108 58q69 0 106 -58t37 -168q0 -111 -37 -169t-106 -58zM191 362q39 0 57 39.5t18 124.5
q0 163 -75 163q-39 0 -57.5 -39.5t-18.5 -123.5q0 -164 76 -164zM646 52q39 0 57 40t18 125q0 162 -75 162q-40 0 -58.5 -39t-18.5 -123q0 -165 77 -165z" />
    <glyph glyph-name="ampersand" unicode="&#x26;" horiz-adv-x="623" 
d="M248 -14q-108 0 -163.5 49t-55.5 139q0 74 39.5 127.5t109.5 102.5q-46 92 -46 178q0 76 41.5 124t115.5 48q70 0 105 -40t35 -101q0 -48 -23.5 -90.5t-53.5 -70t-79 -60.5q9 -15 55 -87q68 -96 102 -134q44 79 55 201h75q-18 -153 -77 -249q65 -58 122 -59v-74
q-90 3 -170 71q-75 -75 -187 -75zM245 448q53 37 81.5 74t28.5 85q0 79 -66 79q-39 0 -59 -26.5t-20 -72.5q0 -64 35 -139zM251 54q81 0 132 54q-50 57 -117 153q-41 60 -56 85q-99 -75 -99 -166q0 -60 35 -93t105 -33z" />
    <glyph glyph-name="quotesingle" unicode="'" horiz-adv-x="210" 
d="M80 486l-15 199v55h78v-55l-14 -199h-49z" />
    <glyph glyph-name="parenleft" unicode="(" horiz-adv-x="349" 
d="M262 -205q-213 208 -213 479q0 269 213 477l47 -39q-174 -194 -174 -438q0 -125 46.5 -238.5t128.5 -201.5z" />
    <glyph glyph-name="parenright" unicode=")" horiz-adv-x="349" 
d="M86 -205l-47 39q175 193 175 439q0 125 -47 238t-128 201l47 39q213 -208 213 -478q0 -268 -213 -478z" />
    <glyph glyph-name="asterisk" unicode="*" horiz-adv-x="463" 
d="M161 368l-54 32l95 138l-165 -13v60l166 -13l-96 139l54 33l71 -154l70 154l53 -33l-95 -139l166 13v-60l-166 13l95 -138l-53 -32l-70 153z" />
    <glyph glyph-name="plus" unicode="+" horiz-adv-x="535" 
d="M232 83v212h-183v69h183v213h71v-213h183v-69h-183v-212h-71z" />
    <glyph glyph-name="comma" unicode="," horiz-adv-x="237" 
d="M81 -102l27 102h-37v104h93v-94l-45 -112h-38z" />
    <glyph glyph-name="hyphen" unicode="-" horiz-adv-x="308" 
d="M52 279v68h205v-68h-205z" />
    <glyph glyph-name="period" unicode="." horiz-adv-x="237" 
d="M71 0v104h93v-104h-93z" />
    <glyph glyph-name="slash" unicode="/" horiz-adv-x="483" 
d="M17 0l366 740h83l-366 -740h-83z" />
    <glyph glyph-name="zero" unicode="0" horiz-adv-x="563" 
d="M282 -14q-116 0 -177 98.5t-61 285.5t61 285.5t177 98.5t176.5 -98.5t60.5 -285.5t-60.5 -285.5t-176.5 -98.5zM282 59q154 0 154 311q0 310 -154 310q-155 0 -155 -310q0 -311 155 -311z" />
    <glyph glyph-name="one" unicode="1" horiz-adv-x="381" 
d="M46 0v73h119v580q-55 -34 -117 -34v73q80 3 120 48h78v-667h106v-73h-306z" />
    <glyph glyph-name="two" unicode="2" horiz-adv-x="504" 
d="M37 0v16q0 65 18.5 118.5t48 89.5t65.5 67.5t72 58.5t65.5 55t48 66t18.5 83q0 60 -29.5 93t-84.5 33q-93 0 -143 -123l-69 29q69 168 217 168q91 0 140.5 -53t49.5 -143q0 -49 -18 -92t-46.5 -75t-63.5 -61.5t-69.5 -57t-63.5 -56t-47 -65.5t-18 -78h327v-73h-418z" />
    <glyph glyph-name="three" unicode="3" horiz-adv-x="511" 
d="M245 -12q-168 0 -230 162l70 29q25 -65 63 -92.5t94 -27.5q66 0 104 39t38 103q0 79 -45.5 118t-145.5 39h-26v68h43q82 0 119.5 35t37.5 104q0 53 -28 84.5t-89 31.5q-85 0 -145 -84l-59 40q82 117 212 117q94 0 142 -51t48 -131q0 -68 -33.5 -114t-87.5 -63
q138 -44 138 -194q0 -94 -61 -153.5t-159 -59.5z" />
    <glyph glyph-name="four" unicode="4" horiz-adv-x="529" 
d="M324 0v173h-299v64l286 503h93v-493h104v-74h-104v-173h-80zM111 247h214v380h-1z" />
    <glyph glyph-name="five" unicode="5" horiz-adv-x="504" 
d="M248 -14q-144 0 -219 149l68 33q55 -111 149 -111q71 0 106.5 52t35.5 133q0 85 -34.5 131t-94.5 46q-82 0 -134 -81l-63 14l24 388h346l-4 -75h-274l-17 -247q47 70 140 70q88 0 140 -62.5t52 -179.5q0 -121 -59 -190.5t-162 -69.5z" />
    <glyph glyph-name="six" unicode="6" horiz-adv-x="526" 
d="M275 -14q-106 0 -168.5 93.5t-62.5 277.5q0 180 63.5 288.5t183.5 108.5q107 0 172 -95l-63 -42q-47 66 -112 66q-80 0 -121 -81t-43 -219q73 83 171 83q99 0 148 -63.5t49 -169.5q0 -109 -58 -178t-159 -69zM279 56q63 0 98 45.5t35 129.5q0 163 -129 163
q-93 0 -158 -87q16 -251 154 -251z" />
    <glyph glyph-name="seven" unicode="7" horiz-adv-x="470" 
d="M93 0l260 665h-316v75h402v-69l-262 -671h-84z" />
    <glyph glyph-name="eight" unicode="8" horiz-adv-x="525" 
d="M263 -15q-111 0 -171.5 54t-60.5 137q0 72 42.5 120t122.5 91q-66 39 -101 82.5t-35 107.5q0 74 53.5 126t149.5 52q97 0 149.5 -51.5t52.5 -126.5q0 -61 -34 -102.5t-101 -78.5q82 -45 123 -93t41 -125q0 -83 -61.5 -138t-169.5 -55zM268 428q61 33 89 65.5t28 79.5
t-30 80t-91 33q-60 0 -91.5 -32t-31.5 -79q0 -48 30.5 -80t96.5 -67zM263 52q67 0 107.5 36t40.5 95q0 55 -37.5 93t-115.5 80q-75 -42 -110 -81t-35 -93q0 -58 41 -94t109 -36z" />
    <glyph glyph-name="nine" unicode="9" horiz-adv-x="526" 
d="M237 -14q-113 0 -180 100l62 42q26 -35 52.5 -53.5t67.5 -18.5q79 0 120.5 81.5t41.5 219.5q-71 -83 -170 -83q-98 0 -147.5 63.5t-49.5 169.5q0 108 58.5 177.5t159.5 69.5q107 0 168.5 -93.5t61.5 -277.5q0 -181 -62.5 -289t-182.5 -108zM245 346q92 0 155 87
q-7 125 -46.5 187.5t-105.5 62.5q-65 0 -99.5 -44.5t-34.5 -129.5q0 -163 131 -163z" />
    <glyph glyph-name="colon" unicode=":" horiz-adv-x="240" 
d="M73 424v104h93v-104h-93zM73 0v104h93v-104h-93z" />
    <glyph glyph-name="semicolon" unicode=";" horiz-adv-x="240" 
d="M73 424v104h93v-104h-93zM82 -102l27 102h-36v104h93v-93l-46 -113h-38z" />
    <glyph glyph-name="less" unicode="&#x3c;" horiz-adv-x="571" 
d="M508 71l-450 223v60l450 223v-75l-367 -178l367 -178v-75z" />
    <glyph glyph-name="equal" unicode="=" horiz-adv-x="535" 
d="M63 404v67h409v-67h-409zM63 179v67h409v-67h-409z" />
    <glyph glyph-name="greater" unicode="&#x3e;" horiz-adv-x="571" 
d="M64 71v75l366 178l-366 178v75l451 -223v-60z" />
    <glyph glyph-name="question" unicode="?" horiz-adv-x="466" 
d="M177 203q-1 19 -1 60q0 58 22 95.5t67 76.5q43 36 61.5 66t18.5 75q0 49 -28.5 77.5t-80.5 28.5q-83 0 -136 -104l-67 31q70 145 208 145q87 0 136 -48.5t49 -123.5q0 -44 -16 -80.5t-33 -54.5t-51 -47q-50 -46 -65 -81.5t-15 -115.5h-69zM163 0v101h97v-101h-97z" />
    <glyph glyph-name="at" unicode="@" horiz-adv-x="744" 
d="M371 -14q-151 0 -241.5 101.5t-90.5 281.5q0 176 93 280.5t241 104.5q147 0 239.5 -102.5t92.5 -271.5q0 -108 -40.5 -166t-110.5 -58q-87 0 -109 78q-63 -75 -136 -75q-59 0 -92 43t-32 121q0 118 48 192.5t126 74.5q65 0 106 -54l6 45h65l-37 -293q-11 -86 62 -86
q43 0 69.5 43.5t26.5 133.5q0 151 -78.5 241t-205.5 90q-128 0 -206.5 -91t-78.5 -249q0 -161 77.5 -251t206.5 -90q94 0 176 46l20 -36q-85 -53 -197 -53zM326 215q54 0 106 58l26 207q-38 52 -93 52q-49 0 -80 -56t-32 -146q-1 -115 73 -115z" />
    <glyph glyph-name="A" unicode="A" horiz-adv-x="564" 
d="M164 213l-59 -213h-79l217 743h78l217 -743h-84l-59 213h-231zM375 286l-32 113q-39 137 -62 228h-2q-23 -91 -62 -226l-32 -115h190z" />
    <glyph glyph-name="B" unicode="B" horiz-adv-x="580" 
d="M76 0v740h216q222 0 222 -186q0 -72 -33 -113t-84 -56v-2q137 -29 137 -182q0 -96 -60 -148.5t-165 -52.5h-233zM159 415h128q147 0 147 125q0 67 -34 96t-111 29h-130v-250zM159 73h148q146 0 146 136q0 73 -41 104.5t-121 31.5h-132v-272z" />
    <glyph glyph-name="C" unicode="C" horiz-adv-x="586" 
d="M309 -13q-124 0 -193.5 99t-69.5 286q0 182 71.5 282t192.5 100q185 0 229 -234l-78 -14q-18 87 -53.5 129t-99.5 42q-85 0 -131.5 -80.5t-46.5 -223.5q0 -150 46.5 -230.5t133.5 -80.5q65 0 102.5 43t57.5 137l77 -13q-23 -113 -81.5 -177.5t-156.5 -64.5z" />
    <glyph glyph-name="D" unicode="D" horiz-adv-x="599" 
d="M76 0v740h163q157 0 235.5 -89t78.5 -280t-79.5 -281t-234.5 -90h-163zM160 75h90q113 0 166 70.5t53 225.5q0 152 -53.5 222t-166.5 70h-89v-588z" />
    <glyph glyph-name="E" unicode="E" horiz-adv-x="508" 
d="M76 0v740h378v-77h-294v-234h215v-76h-215v-277h311v-76h-395z" />
    <glyph glyph-name="F" unicode="F" horiz-adv-x="478" 
d="M76 0v740h373v-77h-289v-239h211v-76h-211v-348h-84z" />
    <glyph glyph-name="G" unicode="G" horiz-adv-x="611" 
d="M303 -13q-123 0 -190 100.5t-67 284.5q0 180 70 281t194 101q181 0 228 -234l-76 -15q-19 89 -55 130.5t-99 41.5q-83 0 -130.5 -78t-47.5 -225q0 -155 47 -233.5t135 -78.5q74 0 115 56t43 164h-141v72h216v-354h-67v101h-1q-20 -48 -64.5 -81t-109.5 -33z" />
    <glyph glyph-name="H" unicode="H" horiz-adv-x="620" 
d="M76 0v740h84v-311h300v311h84v-740h-84v352h-300v-352h-84z" />
    <glyph glyph-name="I" unicode="I" horiz-adv-x="248" 
d="M82 0v740h84v-740h-84z" />
    <glyph glyph-name="J" unicode="J" horiz-adv-x="431" 
d="M188 -11q-94 0 -169 58l40 61q59 -46 123 -46q43 0 68.5 25.5t25.5 78.5v574h84v-575q0 -85 -46 -130.5t-126 -45.5z" />
    <glyph glyph-name="K" unicode="K" horiz-adv-x="568" 
d="M76 0v740h84v-388q18 31 77 114l192 274h89l-205 -287l238 -453h-89l-201 382l-101 -138v-244h-84z" />
    <glyph glyph-name="L" unicode="L" horiz-adv-x="484" 
d="M76 0v740h84v-664h293v-76h-377z" />
    <glyph glyph-name="M" unicode="M" horiz-adv-x="735" 
d="M76 0v740h105l187 -623h2l183 623h105v-740h-81v606h-2q-11 -58 -51 -188l-127 -418h-66l-127 420q-34 109 -51 187h-2v-607h-75z" />
    <glyph glyph-name="N" unicode="N" horiz-adv-x="627" 
d="M76 0v740h98l232 -453q35 -68 65 -131h2v584h77v-740h-77l-248 477q-42 81 -70 140h-2v-617h-77z" />
    <glyph glyph-name="O" unicode="O" horiz-adv-x="627" 
d="M314 -14q-120 0 -194 101t-74 283t74 283t194 101q119 0 193 -101t74 -283t-74 -283t-193 -101zM314 62q85 0 133.5 81t48.5 227t-48.5 226.5t-133.5 80.5q-86 0 -135 -80.5t-49 -226.5t49 -227t135 -81z" />
    <glyph glyph-name="P" unicode="P" horiz-adv-x="553" 
d="M76 0v740h207q106 0 167 -52t61 -159q0 -116 -63.5 -168t-169.5 -52h-119v-309h-83zM159 382h122q75 0 112 34t37 110q0 73 -36.5 105t-113.5 32h-121v-281z" />
    <glyph glyph-name="Q" unicode="Q" horiz-adv-x="627" 
d="M466 -188q-194 0 -196 181q-102 15 -163 113.5t-61 263.5q0 182 74.5 283t194.5 101q118 0 192 -101t74 -283q0 -169 -63 -266.5t-167 -111.5q4 -63 36.5 -85.5t97.5 -22.5h43v-72h-62zM315 60q84 0 132.5 82t48.5 228t-48.5 226.5t-132.5 80.5q-86 0 -135.5 -80.5
t-49.5 -226.5t49.5 -228t135.5 -82z" />
    <glyph glyph-name="R" unicode="R" horiz-adv-x="570" 
d="M76 0v740h210q109 0 167 -52t58 -158q0 -84 -39 -134t-101 -66l150 -330h-86l-145 315h-131v-315h-83zM159 387h122q76 0 112.5 32.5t36.5 109.5q0 72 -36.5 103t-112.5 31h-122v-276z" />
    <glyph glyph-name="S" unicode="S" horiz-adv-x="547" 
d="M279 -12q-171 0 -246 175l72 33q58 -134 174 -134q65 0 102 32.5t37 86.5q0 31 -11.5 55.5t-36.5 44t-45.5 31.5t-58.5 30q-35 17 -48.5 24t-44 24.5t-44 32t-31.5 37t-25 50t-7 60.5q0 80 57.5 132t143.5 52q155 0 221 -156l-72 -35q-51 117 -150 117q-52 0 -84.5 -30
t-32.5 -77q0 -31 11 -55.5t36 -44t45 -31.5t57 -30q30 -14 42 -20t39 -21t39.5 -25.5t31.5 -29t27.5 -36.5t15.5 -43.5t7 -53.5q0 -83 -60.5 -139t-160.5 -56z" />
    <glyph glyph-name="T" unicode="T" horiz-adv-x="519" 
d="M217 0v663h-191v77h466v-77h-191v-663h-84z" />
    <glyph glyph-name="U" unicode="U" horiz-adv-x="602" 
d="M301 -13q-119 0 -175 67.5t-56 188.5v497h84v-486q0 -96 34 -144.5t114 -48.5q79 0 113.5 48t34.5 143v488h81v-495q0 -119 -56.5 -188.5t-173.5 -69.5z" />
    <glyph glyph-name="V" unicode="V" horiz-adv-x="559" 
d="M240 -3l-214 743h84l111 -400q30 -105 60 -225h2q14 59 60 223l111 402h79l-214 -743h-79z" />
    <glyph glyph-name="W" unicode="W" horiz-adv-x="777" 
d="M195 -3l-165 743h80l80 -380q26 -120 44 -219h2q8 51 42 219l75 380h76l78 -390q30 -144 41 -209h2q14 81 41 209l81 390h75l-165 -743h-71l-121 596h-2l-122 -596h-71z" />
    <glyph glyph-name="X" unicode="X" horiz-adv-x="555" 
d="M18 0l215 400l-182 340h90l141 -270l138 270h81l-180 -338l215 -402h-88l-174 333l-174 -333h-82z" />
    <glyph glyph-name="Y" unicode="Y" horiz-adv-x="526" 
d="M221 0v305l-205 435h86l162 -358h2l162 358h81l-204 -433v-307h-84z" />
    <glyph glyph-name="Z" unicode="Z" horiz-adv-x="527" 
d="M33 0v63l354 600h-330v77h428v-63l-352 -601h352v-76h-452z" />
    <glyph glyph-name="bracketleft" unicode="[" horiz-adv-x="339" 
d="M71 -200v940h232v-63h-150v-814h150v-63h-232z" />
    <glyph glyph-name="backslash" unicode="\" horiz-adv-x="478" 
d="M380 0l-366 740h84l365 -740h-83z" />
    <glyph glyph-name="bracketright" unicode="]" horiz-adv-x="339" 
d="M35 -200v63h150v814h-150v63h232v-940h-232z" />
    <glyph glyph-name="asciicircum" unicode="^" 
d="M84 581l110 159h56l110 -159h-49l-90 88l-88 -88h-49z" />
    <glyph glyph-name="underscore" unicode="_" horiz-adv-x="430" 
d="M-3 -130v65h436v-65h-436z" />
    <glyph glyph-name="grave" unicode="`" 
d="M225 584l-120 156h95l80 -156h-55z" />
    <glyph glyph-name="a" unicode="a" horiz-adv-x="471" 
d="M162 -7q-59 0 -92.5 35t-33.5 97q0 164 295 223v32q0 88 -79 88q-83 0 -156 -71l-45 49q93 93 209 93q150 0 150 -159v-250q0 -95 13 -130h-81q-11 38 -11 68q-69 -75 -169 -75zM189 59q78 0 142 69v162q-216 -46 -216 -154q0 -77 74 -77z" />
    <glyph glyph-name="b" unicode="b" horiz-adv-x="508" 
d="M285 -8q-82 0 -140 71v-63h-81v739h81v-279q64 79 145 79t130.5 -68.5t49.5 -205.5t-51 -205t-134 -68zM270 59q55 0 86.5 50t31.5 155q0 102 -32 153.5t-87 51.5q-35 0 -63.5 -19t-60.5 -55v-264q59 -72 125 -72z" />
    <glyph glyph-name="c" unicode="c" horiz-adv-x="456" 
d="M240 -11q-87 0 -144 72t-57 203q0 135 58.5 205t147.5 70q74 0 115 -42t62 -115l-74 -20q-15 53 -39 80t-66 27q-54 0 -88.5 -51.5t-34.5 -153.5q0 -97 32.5 -152t90.5 -55q82 0 111 109l71 -19q-46 -158 -185 -158z" />
    <glyph glyph-name="d" unicode="d" horiz-adv-x="508" 
d="M219 -8q-82 0 -130.5 67.5t-48.5 204.5t50.5 206t132.5 69q83 0 142 -74v275h80v-610q0 -95 13 -130h-83q-10 28 -10 69q-65 -77 -146 -77zM241 59q61 0 124 72v265q-62 73 -125 73q-56 0 -87.5 -51t-31.5 -156q0 -102 32 -152.5t88 -50.5z" />
    <glyph glyph-name="e" unicode="e" horiz-adv-x="470" 
d="M242 -11q-90 0 -146.5 71t-56.5 204q0 135 59 205t145 70q89 0 138.5 -70t49.5 -202v-20h-312q2 -92 35.5 -141t91.5 -49q44 0 72.5 23t52.5 69l56 -35q-61 -125 -185 -125zM120 308h234q-4 75 -32 118.5t-80 43.5q-48 0 -82 -41t-40 -121z" />
    <glyph glyph-name="f" unicode="f" horiz-adv-x="297" 
d="M98 0v461h-77v67h77v80q0 133 144 133q35 0 39 -2v-67q-1 0 -14.5 0.5t-15.5 0.5q-73 0 -73 -67v-78h99v-67h-99v-461h-80z" />
    <glyph glyph-name="g" unicode="g" horiz-adv-x="493" 
d="M362 486q45 39 106 49v-76q-44 0 -80 -14q24 -43 24 -97q0 -87 -50.5 -138t-131.5 -51q-40 0 -72 12q-30 -17 -30 -41q0 -16 12.5 -23.5t48.5 -12.5l82 -10q97 -11 139 -42.5t42 -92.5q0 -69 -64 -109t-165 -40q-208 0 -208 127q0 77 86 118q-44 24 -44 66q0 48 57 83
q-70 54 -70 154q0 85 52 138t133 53q83 0 133 -53zM230 219q50 0 78 34.5t28 93.5q0 60 -27.5 94t-79.5 34q-50 0 -78.5 -34.5t-28.5 -93.5t28.5 -93.5t79.5 -34.5zM157 29q-67 -31 -67 -90q0 -42 32.5 -61.5t109.5 -19.5q65 0 105 21.5t40 59.5q0 34 -25.5 51.5t-93.5 25.5
l-86 11q-3 1 -7.5 1t-7.5 1z" />
    <glyph glyph-name="h" unicode="h" horiz-adv-x="502" 
d="M64 0v740h81v-285q31 34 75.5 59t91.5 25q64 0 97 -37.5t33 -109.5v-392h-80v375q0 48 -17.5 70.5t-57.5 22.5q-68 0 -142 -76v-392h-81z" />
    <glyph glyph-name="i" unicode="i" horiz-adv-x="220" 
d="M69 633v87h82v-87h-82zM69 0v528h81v-528h-81z" />
    <glyph glyph-name="j" unicode="j" horiz-adv-x="220" 
d="M69 633v87h82v-87h-82zM40 -201q-32 0 -42 4v63q12 -2 28 -2q43 0 43 57v607h81v-610q0 -61 -25 -90t-85 -29z" />
    <glyph glyph-name="k" unicode="k" horiz-adv-x="459" 
d="M64 0v740h80v-484q5 10 73 104l121 168h83l-143 -193l161 -335h-83l-128 269l-84 -111v-158h-80z" />
    <glyph glyph-name="l" unicode="l" horiz-adv-x="220" 
d="M69 0v740h81v-740h-81z" />
    <glyph glyph-name="m" unicode="m" horiz-adv-x="779" 
d="M64 0v528h81v-73q78 84 161 84q100 0 120 -84q78 84 165 84q128 0 128 -147v-392h-80v375q0 48 -17 70.5t-57 22.5q-60 0 -133 -71v-397h-81v375q0 49 -15.5 71t-55.5 22q-60 0 -135 -75v-393h-81z" />
    <glyph glyph-name="n" unicode="n" horiz-adv-x="502" 
d="M64 0v528h81v-73q31 34 75.5 59t91.5 25q64 0 97 -37.5t33 -109.5v-392h-80v375q0 48 -17.5 70.5t-57.5 22.5q-68 0 -142 -76v-392h-81z" />
    <glyph glyph-name="o" unicode="o" horiz-adv-x="495" 
d="M248 -11q-92 0 -150.5 72t-58.5 203q0 132 58.5 203.5t150.5 71.5t150 -71.5t58 -203.5q0 -131 -58.5 -203t-149.5 -72zM248 57q62 0 94.5 55.5t32.5 151.5q0 91 -32 148t-95 57q-62 0 -95 -55t-33 -150q0 -92 31.5 -149.5t96.5 -57.5z" />
    <glyph glyph-name="p" unicode="p" horiz-adv-x="508" 
d="M64 -200v728h81v-67q64 78 145 78t130 -68.5t49 -205.5t-50.5 -205t-133.5 -68t-140 72v-264h-81zM270 59q55 0 86.5 50t31.5 155q0 102 -32 153.5t-87 51.5q-61 0 -124 -73v-265q59 -72 125 -72z" />
    <glyph glyph-name="q" unicode="q" horiz-adv-x="508" 
d="M363 -200v269q-66 -78 -144 -78q-82 0 -130.5 67.5t-48.5 204.5t49.5 206.5t130.5 69.5q78 0 143 -77v66h81v-728h-81zM241 58q34 0 61.5 18t60.5 54v265q-64 74 -123 74q-56 0 -87.5 -50.5t-31.5 -154.5q0 -103 32.5 -154.5t87.5 -51.5z" />
    <glyph glyph-name="r" unicode="r" horiz-adv-x="345" 
d="M64 0v528h81v-91h2q58 102 167 102h11l-5 -76q-15 1 -19 1q-50 0 -91 -29.5t-65 -78.5v-356h-81z" />
    <glyph glyph-name="s" unicode="s" horiz-adv-x="435" 
d="M217 -11q-130 0 -197 108l55 40q54 -82 143 -82q50 0 77.5 20.5t27.5 57.5q0 35 -28.5 58.5t-68.5 37.5t-80.5 31t-69 51t-28.5 86q0 63 46.5 102.5t120.5 39.5q112 0 174 -95l-54 -42q-46 70 -121 70q-43 0 -65.5 -19.5t-22.5 -51.5q0 -36 28 -58.5t68 -36.5t80.5 -30
t68.5 -51t28 -88q0 -67 -52 -107.5t-130 -40.5z" />
    <glyph glyph-name="t" unicode="t" horiz-adv-x="325" 
d="M228 -6q-72 0 -102 28.5t-30 96.5v342h-78v67h78v188h80v-188h116v-67h-116v-324q0 -42 14.5 -60t55.5 -18q28 0 45 7v-65q-21 -7 -63 -7z" />
    <glyph glyph-name="u" unicode="u" horiz-adv-x="502" 
d="M190 -11q-64 0 -97 37.5t-33 109.5v392h80v-377q0 -48 18 -70t60 -22q65 0 139 76v393h81v-528h-81v73q-76 -84 -167 -84z" />
    <glyph glyph-name="v" unicode="v" horiz-adv-x="441" 
d="M178 -2l-160 530h81l86 -300q7 -26 20 -73.5t18 -68.5h2q14 58 37 142l85 300h76l-160 -530h-85z" />
    <glyph glyph-name="w" unicode="w" horiz-adv-x="638" 
d="M154 -2l-135 530h78l65 -265q14 -54 33 -147h2q12 68 32 150l58 262h71l59 -260q23 -94 33 -153h2q11 55 34 153l62 260h71l-134 -530h-71l-93 403h-2l-95 -403h-70z" />
    <glyph glyph-name="x" unicode="x" horiz-adv-x="437" 
d="M18 0l159 276l-143 252h84l107 -191l101 191h78l-143 -250l159 -278h-84l-120 218l-120 -218h-78z" />
    <glyph glyph-name="y" unicode="y" horiz-adv-x="455" 
d="M88 -201q-46 0 -82 12l16 64q35 -8 64 -8q33 0 50.5 18.5t31.5 63.5l15 46l-165 533h83l80 -276q22 -75 43 -159h2q18 71 45 165l78 270h77l-182 -586q-25 -77 -58 -110t-98 -33z" />
    <glyph glyph-name="z" unicode="z" horiz-adv-x="430" 
d="M32 0v52l257 409h-235v67h331v-53l-257 -409h268v-66h-364z" />
    <glyph glyph-name="braceleft" unicode="{" horiz-adv-x="335" 
d="M245 -200q-123 0 -123 137v185q0 70 -21 93.5t-73 23.5v62q52 0 73 24t21 93v185q0 137 125 137h61v-63h-37q-67 0 -67 -74v-189q0 -69 -18 -98.5t-57 -44.5v-2q39 -15 57 -44.5t18 -98.5v-190q0 -38 16 -55.5t51 -17.5h37v-63h-63z" />
    <glyph glyph-name="bar" unicode="|" horiz-adv-x="308" 
d="M114 -200v940h80v-940h-80z" />
    <glyph glyph-name="braceright" unicode="}" horiz-adv-x="335" 
d="M27 -200v63h37q35 0 51 17.5t16 55.5v193q0 68 17.5 96.5t57.5 43.5v2q-40 15 -57.5 43.5t-17.5 96.5v192q0 74 -67 74h-37v63h65q64 0 92.5 -33.5t28.5 -100.5v-188q0 -69 21 -93t73 -24v-62q-52 0 -73 -23.5t-21 -93.5v-188q0 -67 -28.5 -100.5t-91.5 -33.5h-66z" />
    <glyph glyph-name="asciitilde" unicode="~" 
d="M288 406q-29 0 -71.5 28t-57.5 28q-18 0 -26.5 -12.5t-8.5 -41.5h-50q0 119 83 119q29 0 71.5 -28t58.5 -28q18 0 26 12t8 42h48q0 -119 -81 -119z" />
    <glyph glyph-name="nbspace" unicode="&#xa0;" horiz-adv-x="100" 
 />
    <glyph glyph-name="exclamdown" unicode="&#xa1;" horiz-adv-x="281" 
d="M91 640v100h96v-100h-96zM91 0l19 537h58l20 -537h-97z" />
    <glyph glyph-name="cent" unicode="&#xa2;" horiz-adv-x="456" 
d="M146 15q-49 31 -78 94.5t-29 154.5q0 135 58.5 205t147.5 70h14l20 93h62l-23 -107q72 -31 104 -143l-74 -20q-18 64 -48 90l-86 -394q12 -4 29 -4q81 0 111 112l71 -19q-46 -158 -185 -158q-21 0 -37 4l-25 -113h-61zM248 472h-5q-54 0 -88.5 -52.5t-34.5 -155.5
q0 -116 46 -173z" />
    <glyph glyph-name="sterling" unicode="&#xa3;" horiz-adv-x="538" 
d="M188 354h-114v64h85q-44 99 -44 152q0 84 47 134t127 50q162 0 177 -189l-76 -9q-10 127 -102 127q-44 0 -69 -28.5t-25 -82.5q0 -48 47 -154h144v-64h-117q29 -78 29 -141q0 -58 -17 -106q56 -52 92 -52q37 0 55.5 31t19.5 103h71q-2 -97 -34 -150t-106 -53
q-60 0 -127 65q-46 -65 -125 -65q-45 0 -77.5 27t-32.5 74q0 50 31.5 82t80.5 32q45 0 94 -40q2 28 2 46q0 62 -36 147zM206 97q-44 46 -78 46q-22 0 -35.5 -14.5t-13.5 -38.5q0 -23 14 -36t35 -13q54 0 78 56z" />
    <glyph glyph-name="currency" unicode="&#xa4;" horiz-adv-x="604" 
d="M114 413h-99v64h104q16 141 76.5 209t154.5 68q89 0 141.5 -57.5t69.5 -154.5l-78 -14q-14 73 -44.5 112.5t-87.5 39.5q-128 0 -151 -203h176v-64h-181q-1 -13 -1 -39q0 -33 1 -48h181v-64h-176q24 -203 155 -203q110 0 140 160l76 -12q-17 -98 -72.5 -159.5
t-143.5 -61.5q-203 0 -236 276h-104v64h99q-1 15 -1 47q0 27 1 40z" />
    <glyph glyph-name="yen" unicode="&#xa5;" horiz-adv-x="526" 
d="M303 259v-88h173v-63h-173v-108h-80v108h-173v63h173v88h-173v63h164l-198 418h86l162 -358h2l162 358h81l-198 -418h165v-63h-173z" />
    <glyph glyph-name="brokenbar" unicode="&#xa6;" horiz-adv-x="308" 
d="M114 331v409h80v-409h-80zM114 -200v409h80v-409h-80z" />
    <glyph glyph-name="section" unicode="&#xa7;" horiz-adv-x="471" 
d="M232 -204q-84 0 -123.5 41.5t-55.5 118.5l72 19q13 -55 36 -83.5t70 -28.5q43 0 64 23.5t21 62.5q0 38 -25.5 68t-84.5 71q-92 61 -128.5 101t-36.5 103q0 51 31.5 93t78.5 69q-41 34 -59 67t-18 76q0 67 45 112.5t120 45.5q86 0 125.5 -41.5t55.5 -120.5l-73 -18
q-12 56 -36 83.5t-71 27.5q-43 0 -65.5 -23.5t-22.5 -61.5t26.5 -68t87.5 -71q91 -61 127 -101t36 -103q0 -51 -31.5 -93t-77.5 -69q40 -35 57 -67.5t17 -75.5q0 -67 -44 -112t-118 -45zM269 136q85 47 85 113q0 41 -27 70t-105 82q-3 2 -9.5 6.5t-9.5 6.5q-87 -46 -87 -112
q0 -41 27.5 -71t105.5 -82q4 -3 11.5 -7.5t8.5 -5.5z" />
    <glyph glyph-name="dieresis" unicode="&#xa8;" 
d="M262 583v90h80v-90h-80zM102 583v90h82v-90h-82z" />
    <glyph glyph-name="copyright" unicode="&#xa9;" horiz-adv-x="712" 
d="M356 -14q-136 0 -226.5 111t-90.5 272q0 162 91 273.5t226 111.5t226 -111t91 -272t-91.5 -273t-225.5 -112zM356 30q115 0 192 98.5t77 240.5q0 143 -77 242t-192 99t-192 -98.5t-77 -240.5q0 -143 77 -242t192 -99zM357 155q-70 0 -109.5 57t-39.5 163q0 103 40 160
t109 57q104 0 134 -138l-56 -10q-10 47 -28 70t-50 23q-43 0 -66 -44t-23 -118q0 -78 23 -121t67 -43q32 0 51 24t30 75l55 -11q-29 -144 -137 -144z" />
    <glyph glyph-name="ordfeminine" unicode="&#xaa;" horiz-adv-x="368" 
d="M133 363q-43 0 -67.5 25t-24.5 70q0 118 207 159v22q0 61 -52 61q-55 0 -109 -52l-37 37q68 68 153 68q106 0 106 -114v-176q0 -66 11 -94h-64q-8 32 -8 47q-51 -53 -115 -53zM151 415q52 0 97 49v110q-145 -31 -145 -108q0 -51 48 -51z" />
    <glyph glyph-name="guillemotleft" unicode="&#xab;" horiz-adv-x="455" 
d="M337 0l-124 264l124 263h79l-121 -263l121 -264h-79zM157 0l-124 264l124 263h79l-120 -263l120 -264h-79z" />
    <glyph glyph-name="registered" unicode="&#xae;" horiz-adv-x="712" 
d="M356 -14q-136 0 -226.5 111t-90.5 272q0 162 91 273.5t226 111.5t226 -111t91 -272t-91.5 -273t-225.5 -112zM356 29q115 0 192 99t77 241q0 143 -77.5 242.5t-191.5 99.5q-115 0 -192.5 -99t-77.5 -241q0 -143 77.5 -242.5t192.5 -99.5zM235 171v412h121q62 0 95 -30.5
t33 -90.5q0 -88 -72 -114l78 -177h-63l-75 169h-59v-169h-58zM293 391h60q37 0 54.5 16.5t17.5 53.5q0 67 -72 67h-60v-137z" />
    <glyph glyph-name="macron" unicode="&#xaf;" 
d="M94 617v67h256v-67h-256z" />
    <glyph glyph-name="degree" unicode="&#xb0;" horiz-adv-x="344" 
d="M173 472q-56 0 -91 39.5t-35 101.5q0 61 35 100.5t91 39.5q55 0 89 -39t34 -101q0 -61 -34.5 -101t-88.5 -40zM173 521q31 0 49 25.5t18 66.5t-18 66t-49 25q-32 0 -50.5 -24.5t-18.5 -66.5t18.5 -67t50.5 -25z" />
    <glyph glyph-name="twosuperior" unicode="&#xb2;" horiz-adv-x="378" 
d="M55 305v20q0 50 19.5 88t47.5 61t56 43.5t47.5 48t19.5 61.5q0 63 -54 63q-45 0 -75 -75l-58 24q43 111 136 111q57 0 87.5 -32t30.5 -89q0 -37 -18 -68t-44 -53t-52 -42t-46 -45t-22 -54h183v-62h-258z" />
    <glyph glyph-name="threesuperior" unicode="&#xb3;" horiz-adv-x="378" 
d="M187 299q-100 0 -142 107l54 25q30 -72 87 -72q33 0 52 19.5t19 51.5q0 42 -23 62.5t-75 20.5h-21v47h29q82 0 82 72q0 26 -14.5 42.5t-43.5 16.5q-43 0 -83 -53l-47 33q54 79 134 79q59 0 89 -31.5t30 -80.5q0 -69 -62 -98q70 -30 70 -110q0 -59 -37 -95t-98 -36z" />
    <glyph glyph-name="acute" unicode="&#xb4;" 
d="M165 584l81 156h93l-120 -156h-54z" />
    <glyph glyph-name="mu" unicode="&#xb5;" horiz-adv-x="504" 
d="M61 -200v728h82v-376q0 -48 17.5 -71t58.5 -23q62 0 139 75v395h82v-528h-82v75q-76 -78 -151 -82q-44 -2 -64 21v-214h-82z" />
    <glyph glyph-name="paragraph" unicode="&#xb6;" horiz-adv-x="540" 
d="M249 -200v536q-98 2 -150 52.5t-52 147.5q0 90 51 147t140 57h230v-940h-69v871h-81v-871h-69z" />
    <glyph glyph-name="periodcentered" unicode="&#xb7;" horiz-adv-x="266" 
d="M82 257v105h102v-105h-102z" />
    <glyph glyph-name="cedilla" unicode="&#xb8;" 
d="M225 -203q-65 0 -114 36l24 39q40 -29 89 -29q60 0 60 44q0 33 -35 33q-23 0 -44 -19l-31 14l25 91h45l-16 -59q21 14 48 14t46.5 -17t19.5 -51q0 -45 -33.5 -70.5t-83.5 -25.5z" />
    <glyph glyph-name="onesuperior" unicode="&#xb9;" horiz-adv-x="338" 
d="M76 302v61h67v302q-28 -13 -66 -13v60q49 1 75 27h60v-376h59v-61h-195z" />
    <glyph glyph-name="ordmasculine" unicode="&#xba;" horiz-adv-x="370" 
d="M185 364q-65 0 -107 51t-42 144t41.5 144t107.5 51t107.5 -51t41.5 -144t-41.5 -144t-107.5 -51zM185 415q43 0 64.5 39t21.5 105q0 62 -21.5 101.5t-64.5 39.5q-42 0 -64 -38t-22 -103q0 -64 21.5 -104t64.5 -40z" />
    <glyph glyph-name="guillemotright" unicode="&#xbb;" horiz-adv-x="455" 
d="M220 0l120 264l-120 263h79l122 -263l-122 -264h-79zM39 0l122 264l-122 263h80l123 -263l-123 -264h-80z" />
    <glyph glyph-name="onequarter" unicode="&#xbc;" horiz-adv-x="792" 
d="M76 302v61h67v302q-28 -13 -66 -13v60q49 1 75 27h60v-376h59v-61h-195zM187 0l376 740h70l-376 -740h-70zM618 0v102h-169v45l165 291h68v-278h59v-58h-59v-102h-64zM516 159h103v183z" />
    <glyph glyph-name="onehalf" unicode="&#xbd;" horiz-adv-x="832" 
d="M76 302v61h67v302q-28 -13 -66 -13v60q49 1 75 27h60v-376h59v-61h-195zM187 0l376 740h70l-376 -740h-70zM507 0v20q0 50 19.5 88t47.5 61.5t56 44t47.5 48t19.5 61.5q0 62 -55 62q-45 0 -75 -75l-57 25q44 111 135 111q57 0 87.5 -32.5t30.5 -88.5q0 -38 -18 -69
t-44 -52.5t-52 -42t-46 -45.5t-22 -54h183v-62h-257z" />
    <glyph glyph-name="threequarters" unicode="&#xbe;" horiz-adv-x="811" 
d="M187 299q-100 0 -142 107l54 25q30 -72 87 -72q33 0 52 19.5t19 51.5q0 42 -23 62.5t-75 20.5h-21v47h29q82 0 82 72q0 26 -14.5 42.5t-43.5 16.5q-43 0 -83 -53l-47 33q54 79 134 79q59 0 89 -31.5t30 -80.5q0 -69 -62 -98q70 -30 70 -110q0 -59 -37 -95t-98 -36zM205 0
l376 740h70l-376 -740h-70zM636 0v102h-168v45l165 291h67v-278h59v-58h-59v-102h-64zM534 159h103v183z" />
    <glyph glyph-name="questiondown" unicode="&#xbf;" horiz-adv-x="466" 
d="M206 639v101h97v-101h-97zM226 -14q-87 0 -136.5 48.5t-49.5 123.5q0 44 16 80.5t33 54.5t51 47q50 46 65 81.5t15 115.5h69q1 -19 1 -60q0 -58 -22 -95.5t-66 -76.5q-43 -36 -62 -65.5t-19 -75.5q0 -49 28.5 -77.5t80.5 -28.5q83 0 136 104l67 -31q-70 -145 -207 -145z
" />
    <glyph glyph-name="Agrave" unicode="&#xc0;" horiz-adv-x="564" 
d="M164 213l-59 -213h-79l217 743h78l217 -743h-84l-59 213h-231zM375 286l-32 113q-39 137 -62 228h-2q-23 -91 -62 -226l-32 -115h190zM261 787l-120 156h95l80 -156h-55z" />
    <glyph glyph-name="Aacute" unicode="&#xc1;" horiz-adv-x="564" 
d="M164 213l-59 -213h-79l217 743h78l217 -743h-84l-59 213h-231zM375 286l-32 113q-39 137 -62 228h-2q-23 -91 -62 -226l-32 -115h190zM248 787l81 156h93l-120 -156h-54z" />
    <glyph glyph-name="Acircumflex" unicode="&#xc2;" horiz-adv-x="564" 
d="M164 213l-59 -213h-79l217 743h78l217 -743h-84l-59 213h-231zM375 286l-32 113q-39 137 -62 228h-2q-23 -91 -62 -226l-32 -115h190zM143 776l110 159h57l110 -159h-50l-88 88l-89 -88h-50z" />
    <glyph glyph-name="Atilde" unicode="&#xc3;" horiz-adv-x="564" 
d="M164 213l-59 -213h-79l217 743h78l217 -743h-84l-59 213h-231zM375 286l-32 113q-39 137 -62 228h-2q-23 -91 -62 -226l-32 -115h190zM348 781q-29 0 -71.5 28t-57.5 28q-18 0 -26.5 -12.5t-8.5 -41.5h-50q0 119 83 119q29 0 71.5 -28t58.5 -28q18 0 26 12t8 42h48
q0 -119 -81 -119z" />
    <glyph glyph-name="Adieresis" unicode="&#xc4;" horiz-adv-x="564" 
d="M164 213l-59 -213h-79l217 743h78l217 -743h-84l-59 213h-231zM375 286l-32 113q-39 137 -62 228h-2q-23 -91 -62 -226l-32 -115h190zM322 786v90h80v-90h-80zM162 786v90h82v-90h-82z" />
    <glyph glyph-name="Aring" unicode="&#xc5;" horiz-adv-x="564" 
d="M164 213l-59 -213h-79l210 719q-39 27 -39 84q0 42 23 68.5t62 26.5q38 0 61.5 -26.5t23.5 -68.5q0 -57 -39 -83l210 -720h-84l-59 213h-231zM282 746q20 0 31 16.5t11 40.5q0 23 -11 39t-31 16t-31 -16t-11 -39q0 -24 11 -40.5t31 -16.5zM375 286l-32 113
q-39 137 -62 228h-2q-23 -91 -62 -226l-32 -115h190z" />
    <glyph glyph-name="AE" unicode="&#xc6;" horiz-adv-x="834" 
d="M21 0l340 740h419v-77h-294v-235h215v-75h-215v-277h311v-76h-394v229h-196l-104 -229h-82zM238 301h165v359z" />
    <glyph glyph-name="Ccedilla" unicode="&#xc7;" horiz-adv-x="586" 
d="M266 -10q-105 17 -162.5 114t-57.5 268q0 182 71.5 282t192.5 100q185 0 229 -234l-78 -14q-18 87 -53.5 129t-99.5 42q-85 0 -131.5 -80.5t-46.5 -223.5q0 -150 46.5 -230.5t133.5 -80.5q65 0 102.5 43t57.5 137l77 -13q-23 -113 -81.5 -177.5t-155.5 -64.5l-11 -40
q21 14 48 14t46.5 -17t19.5 -51q0 -45 -33.5 -70.5t-83.5 -25.5q-65 0 -114 36l24 39q40 -29 89 -29q60 0 60 44q0 33 -35 33q-23 0 -44 -19l-31 14z" />
    <glyph glyph-name="Egrave" unicode="&#xc8;" horiz-adv-x="508" 
d="M76 0v740h378v-77h-294v-234h215v-76h-215v-277h311v-76h-395zM257 787l-120 156h95l80 -156h-55z" />
    <glyph glyph-name="Eacute" unicode="&#xc9;" horiz-adv-x="508" 
d="M76 0v740h378v-77h-294v-234h215v-76h-215v-277h311v-76h-395zM205 787l81 156h93l-120 -156h-54z" />
    <glyph glyph-name="Ecircumflex" unicode="&#xca;" horiz-adv-x="508" 
d="M76 0v740h378v-77h-294v-234h215v-76h-215v-277h311v-76h-395zM125 784l110 159h57l110 -159h-50l-88 88l-89 -88h-50z" />
    <glyph glyph-name="Edieresis" unicode="&#xcb;" horiz-adv-x="508" 
d="M76 0v740h378v-77h-294v-234h215v-76h-215v-277h311v-76h-395zM304 786v90h80v-90h-80zM144 786v90h82v-90h-82z" />
    <glyph glyph-name="Igrave" unicode="&#xcc;" horiz-adv-x="248" 
d="M82 0v740h84v-740h-84zM127 787l-120 156h95l80 -156h-55z" />
    <glyph glyph-name="Iacute" unicode="&#xcd;" horiz-adv-x="248" 
d="M82 0v740h84v-740h-84zM67 787l81 156h93l-120 -156h-54z" />
    <glyph glyph-name="Icircumflex" unicode="&#xce;" horiz-adv-x="248" 
d="M82 0v740h84v-740h-84zM-15 784l110 159h57l110 -159h-50l-88 88l-89 -88h-50z" />
    <glyph glyph-name="Idieresis" unicode="&#xcf;" horiz-adv-x="248" 
d="M82 0v740h84v-740h-84zM164 786v90h80v-90h-80zM4 786v90h82v-90h-82z" />
    <glyph glyph-name="Eth" unicode="&#xd0;" horiz-adv-x="599" 
d="M76 355h-62v70h62v315h163q157 0 235.5 -89t78.5 -280t-79.5 -281t-234.5 -90h-163v355zM158 425h131v-70h-131v-280h92q113 0 166 70.5t53 225.5q0 152 -53.5 222t-166.5 70h-91v-238z" />
    <glyph glyph-name="Ntilde" unicode="&#xd1;" horiz-adv-x="627" 
d="M76 0v740h98l232 -453q35 -68 65 -131h2v584h77v-740h-77l-248 477q-42 81 -70 140h-2v-617h-77zM380 781q-29 0 -71.5 28t-57.5 28q-18 0 -26.5 -12.5t-8.5 -41.5h-50q0 119 83 119q29 0 71.5 -28t58.5 -28q18 0 26 12t8 42h48q0 -119 -81 -119z" />
    <glyph glyph-name="Ograve" unicode="&#xd2;" horiz-adv-x="627" 
d="M314 -14q-120 0 -194 101t-74 283t74 283t194 101q119 0 193 -101t74 -283t-74 -283t-193 -101zM314 62q85 0 133.5 81t48.5 227t-48.5 226.5t-133.5 80.5q-86 0 -135 -80.5t-49 -226.5t49 -227t135 -81zM317 787l-120 156h95l80 -156h-55z" />
    <glyph glyph-name="Oacute" unicode="&#xd3;" horiz-adv-x="627" 
d="M314 -14q-120 0 -194 101t-74 283t74 283t194 101q119 0 193 -101t74 -283t-74 -283t-193 -101zM314 62q85 0 133.5 81t48.5 227t-48.5 226.5t-133.5 80.5q-86 0 -135 -80.5t-49 -226.5t49 -227t135 -81zM257 787l81 156h93l-120 -156h-54z" />
    <glyph glyph-name="Ocircumflex" unicode="&#xd4;" horiz-adv-x="627" 
d="M314 -14q-120 0 -194 101t-74 283t74 283t194 101q119 0 193 -101t74 -283t-74 -283t-193 -101zM314 62q85 0 133.5 81t48.5 227t-48.5 226.5t-133.5 80.5q-86 0 -135 -80.5t-49 -226.5t49 -227t135 -81zM175 784l110 159h57l110 -159h-50l-88 88l-89 -88h-50z" />
    <glyph glyph-name="Otilde" unicode="&#xd5;" horiz-adv-x="627" 
d="M314 -14q-120 0 -194 101t-74 283t74 283t194 101q119 0 193 -101t74 -283t-74 -283t-193 -101zM314 62q85 0 133.5 81t48.5 227t-48.5 226.5t-133.5 80.5q-86 0 -135 -80.5t-49 -226.5t49 -227t135 -81zM380 781q-29 0 -71.5 28t-57.5 28q-18 0 -26.5 -12.5t-8.5 -41.5
h-50q0 119 83 119q29 0 71.5 -28t58.5 -28q18 0 26 12t8 42h48q0 -119 -81 -119z" />
    <glyph glyph-name="Odieresis" unicode="&#xd6;" horiz-adv-x="627" 
d="M314 -14q-120 0 -194 101t-74 283t74 283t194 101q119 0 193 -101t74 -283t-74 -283t-193 -101zM314 62q85 0 133.5 81t48.5 227t-48.5 226.5t-133.5 80.5q-86 0 -135 -80.5t-49 -226.5t49 -227t135 -81zM354 786v90h80v-90h-80zM194 786v90h82v-90h-82z" />
    <glyph glyph-name="multiply" unicode="&#xd7;" horiz-adv-x="535" 
d="M109 126l-47 47l158 157l-158 157l47 47l158 -158l157 158l47 -47l-158 -157l158 -157l-47 -47l-157 157z" />
    <glyph glyph-name="Oslash" unicode="&#xd8;" horiz-adv-x="627" 
d="M501 661q80 -104 80 -291q0 -182 -74 -283t-193 -101q-84 0 -146 50l-44 -80l-52 30l53 95q-79 101 -79 289q0 182 74 283t194 101q82 0 143 -49l46 80l51 -29zM170 157l251 476q-45 45 -107 45q-86 0 -135.5 -81t-49.5 -227q0 -131 41 -213zM456 583l-251 -475
q44 -47 109 -47q85 0 134 81.5t49 227.5q0 131 -41 213z" />
    <glyph glyph-name="Ugrave" unicode="&#xd9;" horiz-adv-x="602" 
d="M301 -13q-119 0 -175 67.5t-56 188.5v497h84v-486q0 -96 34 -144.5t114 -48.5q79 0 113.5 48t34.5 143v488h81v-495q0 -119 -56.5 -188.5t-173.5 -69.5zM304 787l-120 156h95l80 -156h-55z" />
    <glyph glyph-name="Uacute" unicode="&#xda;" horiz-adv-x="602" 
d="M301 -13q-119 0 -175 67.5t-56 188.5v497h84v-486q0 -96 34 -144.5t114 -48.5q79 0 113.5 48t34.5 143v488h81v-495q0 -119 -56.5 -188.5t-173.5 -69.5zM244 787l81 156h93l-120 -156h-54z" />
    <glyph glyph-name="Ucircumflex" unicode="&#xdb;" horiz-adv-x="602" 
d="M301 -13q-119 0 -175 67.5t-56 188.5v497h84v-486q0 -96 34 -144.5t114 -48.5q79 0 113.5 48t34.5 143v488h81v-495q0 -119 -56.5 -188.5t-173.5 -69.5zM163 784l110 159h57l110 -159h-50l-88 88l-89 -88h-50z" />
    <glyph glyph-name="Udieresis" unicode="&#xdc;" horiz-adv-x="602" 
d="M301 -13q-119 0 -175 67.5t-56 188.5v497h84v-486q0 -96 34 -144.5t114 -48.5q79 0 113.5 48t34.5 143v488h81v-495q0 -119 -56.5 -188.5t-173.5 -69.5zM341 786v90h80v-90h-80zM181 786v90h82v-90h-82z" />
    <glyph glyph-name="Yacute" unicode="&#xdd;" horiz-adv-x="526" 
d="M221 0v305l-205 435h86l162 -358h2l162 358h81l-204 -433v-307h-84zM206 787l81 156h93l-120 -156h-54z" />
    <glyph glyph-name="Thorn" unicode="&#xde;" horiz-adv-x="553" 
d="M76 0v740h83v-134h124q106 0 167 -52t61 -160q0 -116 -63.5 -167.5t-169.5 -51.5h-119v-175h-83zM159 249h122q75 0 112 33.5t37 109.5q0 72 -37 104.5t-113 32.5h-121v-280z" />
    <glyph glyph-name="germandbls" unicode="&#xdf;" horiz-adv-x="529" 
d="M316 -10q-79 0 -126 37l38 57q37 -29 85 -29q46 0 74 38t28 112q0 87 -45 126t-142 44v64q67 1 100.5 33t33.5 88q0 52 -28 81t-79 29q-54 0 -82.5 -36t-28.5 -105v-529h-81v526q0 102 51.5 158t141.5 56q86 0 134.5 -44.5t48.5 -127.5q0 -57 -29.5 -99.5t-78.5 -56.5
q74 -14 118.5 -64.5t44.5 -139.5q0 -99 -46.5 -158.5t-131.5 -59.5z" />
    <glyph glyph-name="agrave" unicode="&#xe0;" horiz-adv-x="471" 
d="M162 -7q-59 0 -92.5 35t-33.5 97q0 164 295 223v32q0 88 -79 88q-83 0 -156 -71l-45 49q93 93 209 93q150 0 150 -159v-250q0 -95 13 -130h-81q-11 38 -11 68q-69 -75 -169 -75zM189 59q78 0 142 69v162q-216 -46 -216 -154q0 -77 74 -77zM238 584l-120 156h95l80 -156
h-55z" />
    <glyph glyph-name="aacute" unicode="&#xe1;" horiz-adv-x="471" 
d="M162 -7q-59 0 -92.5 35t-33.5 97q0 164 295 223v32q0 88 -79 88q-83 0 -156 -71l-45 49q93 93 209 93q150 0 150 -159v-250q0 -95 13 -130h-81q-11 38 -11 68q-69 -75 -169 -75zM189 59q78 0 142 69v162q-216 -46 -216 -154q0 -77 74 -77zM178 584l81 156h93l-120 -156
h-54z" />
    <glyph glyph-name="acircumflex" unicode="&#xe2;" horiz-adv-x="471" 
d="M162 -7q-59 0 -92.5 35t-33.5 97q0 164 295 223v32q0 88 -79 88q-83 0 -156 -71l-45 49q93 93 209 93q150 0 150 -159v-250q0 -95 13 -130h-81q-11 38 -11 68q-69 -75 -169 -75zM189 59q78 0 142 69v162q-216 -46 -216 -154q0 -77 74 -77zM96 581l110 159h57l110 -159
h-50l-88 88l-89 -88h-50z" />
    <glyph glyph-name="atilde" unicode="&#xe3;" horiz-adv-x="471" 
d="M162 -7q-59 0 -92.5 35t-33.5 97q0 164 295 223v32q0 88 -79 88q-83 0 -156 -71l-45 49q93 93 209 93q150 0 150 -159v-250q0 -95 13 -130h-81q-11 38 -11 68q-69 -75 -169 -75zM189 59q78 0 142 69v162q-216 -46 -216 -154q0 -77 74 -77zM301 578q-29 0 -71.5 28
t-57.5 28q-18 0 -26.5 -12.5t-8.5 -41.5h-50q0 119 83 119q29 0 71.5 -28t58.5 -28q18 0 26 12t8 42h48q0 -119 -81 -119z" />
    <glyph glyph-name="adieresis" unicode="&#xe4;" horiz-adv-x="471" 
d="M162 -7q-59 0 -92.5 35t-33.5 97q0 164 295 223v32q0 88 -79 88q-83 0 -156 -71l-45 49q93 93 209 93q150 0 150 -159v-250q0 -95 13 -130h-81q-11 38 -11 68q-69 -75 -169 -75zM189 59q78 0 142 69v162q-216 -46 -216 -154q0 -77 74 -77zM275 583v90h80v-90h-80z
M115 583v90h82v-90h-82z" />
    <glyph glyph-name="aring" unicode="&#xe5;" horiz-adv-x="471" 
d="M162 -7q-59 0 -92.5 35t-33.5 97q0 164 295 223v32q0 88 -79 88q-83 0 -156 -71l-45 49q93 93 209 93q150 0 150 -159v-250q0 -95 13 -130h-81q-11 38 -11 68q-69 -75 -169 -75zM189 59q78 0 142 69v162q-216 -46 -216 -154q0 -77 74 -77zM235 573q-38 0 -61.5 27.5
t-23.5 69.5t23 68.5t62 26.5q38 0 61.5 -26.5t23.5 -68.5t-23.5 -69.5t-61.5 -27.5zM235 613q20 0 31 16.5t11 40.5q0 23 -11 39t-31 16t-31 -16t-11 -39q0 -24 11 -40.5t31 -16.5z" />
    <glyph glyph-name="ae" unicode="&#xe6;" horiz-adv-x="758" 
d="M364 94q-83 -102 -202 -102q-59 0 -92.5 35t-33.5 97q0 165 295 224v32q0 88 -79 88q-83 0 -156 -71l-45 49q93 93 212 93q100 0 125 -82q55 82 143 82q90 0 139.5 -70t49.5 -202v-20h-312q2 -92 35.5 -141t91.5 -49q43 0 71.5 22.5t53.5 69.5l56 -35q-61 -125 -185 -125
q-115 0 -167 105zM409 308h234q-4 75 -32 118.5t-80 43.5q-48 0 -82 -41t-40 -121zM332 289q-217 -46 -217 -154q0 -78 74 -78q79 0 157 85q-15 51 -15 122q0 17 1 25z" />
    <glyph glyph-name="ccedilla" unicode="&#xe7;" horiz-adv-x="456" 
d="M201 -7q-72 16 -117 86t-45 185q0 135 58.5 205t147.5 70q74 0 115 -42t62 -115l-74 -20q-15 53 -39 80t-66 27q-54 0 -88.5 -51.5t-34.5 -153.5q0 -97 32.5 -152t90.5 -55q82 0 111 109l71 -19q-45 -155 -180 -158l-11 -42q21 14 48 14t46.5 -17t19.5 -51
q0 -45 -33.5 -70.5t-83.5 -25.5q-65 0 -114 36l24 39q40 -29 89 -29q60 0 60 44q0 33 -35 33q-23 0 -44 -19l-31 14z" />
    <glyph glyph-name="egrave" unicode="&#xe8;" horiz-adv-x="470" 
d="M242 -11q-90 0 -146.5 71t-56.5 204q0 135 59 205t145 70q89 0 138.5 -70t49.5 -202v-20h-312q2 -92 35.5 -141t91.5 -49q44 0 72.5 23t52.5 69l56 -35q-61 -125 -185 -125zM120 308h234q-4 75 -32 118.5t-80 43.5q-48 0 -82 -41t-40 -121zM238 584l-120 156h95l80 -156
h-55z" />
    <glyph glyph-name="eacute" unicode="&#xe9;" horiz-adv-x="470" 
d="M242 -11q-90 0 -146.5 71t-56.5 204q0 135 59 205t145 70q89 0 138.5 -70t49.5 -202v-20h-312q2 -92 35.5 -141t91.5 -49q44 0 72.5 23t52.5 69l56 -35q-61 -125 -185 -125zM120 308h234q-4 75 -32 118.5t-80 43.5q-48 0 -82 -41t-40 -121zM178 584l81 156h93l-120 -156
h-54z" />
    <glyph glyph-name="ecircumflex" unicode="&#xea;" horiz-adv-x="470" 
d="M242 -11q-90 0 -146.5 71t-56.5 204q0 135 59 205t145 70q89 0 138.5 -70t49.5 -202v-20h-312q2 -92 35.5 -141t91.5 -49q44 0 72.5 23t52.5 69l56 -35q-61 -125 -185 -125zM120 308h234q-4 75 -32 118.5t-80 43.5q-48 0 -82 -41t-40 -121zM96 581l110 159h57l110 -159
h-50l-88 88l-89 -88h-50z" />
    <glyph glyph-name="edieresis" unicode="&#xeb;" horiz-adv-x="470" 
d="M242 -11q-90 0 -146.5 71t-56.5 204q0 135 59 205t145 70q89 0 138.5 -70t49.5 -202v-20h-312q2 -92 35.5 -141t91.5 -49q44 0 72.5 23t52.5 69l56 -35q-61 -125 -185 -125zM120 308h234q-4 75 -32 118.5t-80 43.5q-48 0 -82 -41t-40 -121zM275 583v90h80v-90h-80z
M115 583v90h82v-90h-82z" />
    <glyph glyph-name="igrave" unicode="&#xec;" horiz-adv-x="220" 
d="M69 0v528h81v-528h-81zM90 584l-120 156h95l80 -156h-55z" />
    <glyph glyph-name="iacute" unicode="&#xed;" horiz-adv-x="220" 
d="M69 0v528h81v-528h-81zM75 584l81 156h93l-120 -156h-54z" />
    <glyph glyph-name="icircumflex" unicode="&#xee;" horiz-adv-x="220" 
d="M69 0v528h81v-528h-81zM-29 581l110 159h57l110 -159h-50l-88 88l-89 -88h-50z" />
    <glyph glyph-name="idieresis" unicode="&#xef;" horiz-adv-x="220" 
d="M69 0v528h81v-528h-81zM150 583v90h80v-90h-80zM-10 583v90h82v-90h-82z" />
    <glyph glyph-name="eth" unicode="&#xf0;" horiz-adv-x="495" 
d="M294 601l-73 -42l-29 51l64 37q-26 27 -59 53l45 49q42 -31 75 -66l76 44l28 -52l-65 -38q99 -135 99 -369q0 -134 -57 -206.5t-150 -72.5q-95 0 -152 71.5t-57 196.5t54.5 193.5t143.5 68.5q41 0 76 -20t54 -57q-21 89 -73 159zM248 56q60 0 93.5 55t33.5 147
q0 89 -33 143.5t-94 54.5q-62 0 -95 -52.5t-33 -145.5q0 -91 32.5 -146.5t95.5 -55.5z" />
    <glyph glyph-name="ntilde" unicode="&#xf1;" horiz-adv-x="502" 
d="M64 0v528h81v-73q31 34 75.5 59t91.5 25q64 0 97 -37.5t33 -109.5v-392h-80v375q0 48 -17.5 70.5t-57.5 22.5q-68 0 -142 -76v-392h-81zM317 578q-29 0 -71.5 28t-57.5 28q-18 0 -26.5 -12.5t-8.5 -41.5h-50q0 119 83 119q29 0 71.5 -28t58.5 -28q18 0 26 12t8 42h48
q0 -119 -81 -119z" />
    <glyph glyph-name="ograve" unicode="&#xf2;" horiz-adv-x="495" 
d="M248 -11q-92 0 -150.5 72t-58.5 203q0 132 58.5 203.5t150.5 71.5t150 -71.5t58 -203.5q0 -131 -58.5 -203t-149.5 -72zM248 57q62 0 94.5 55.5t32.5 151.5q0 91 -32 148t-95 57q-62 0 -95 -55t-33 -150q0 -92 31.5 -149.5t96.5 -57.5zM251 584l-120 156h95l80 -156h-55z
" />
    <glyph glyph-name="oacute" unicode="&#xf3;" horiz-adv-x="495" 
d="M248 -11q-92 0 -150.5 72t-58.5 203q0 132 58.5 203.5t150.5 71.5t150 -71.5t58 -203.5q0 -131 -58.5 -203t-149.5 -72zM248 57q62 0 94.5 55.5t32.5 151.5q0 91 -32 148t-95 57q-62 0 -95 -55t-33 -150q0 -92 31.5 -149.5t96.5 -57.5zM191 584l81 156h93l-120 -156h-54z
" />
    <glyph glyph-name="ocircumflex" unicode="&#xf4;" horiz-adv-x="495" 
d="M248 -11q-92 0 -150.5 72t-58.5 203q0 132 58.5 203.5t150.5 71.5t150 -71.5t58 -203.5q0 -131 -58.5 -203t-149.5 -72zM248 57q62 0 94.5 55.5t32.5 151.5q0 91 -32 148t-95 57q-62 0 -95 -55t-33 -150q0 -92 31.5 -149.5t96.5 -57.5zM109 581l110 159h57l110 -159h-50
l-88 88l-89 -88h-50z" />
    <glyph glyph-name="otilde" unicode="&#xf5;" horiz-adv-x="495" 
d="M248 -11q-92 0 -150.5 72t-58.5 203q0 132 58.5 203.5t150.5 71.5t150 -71.5t58 -203.5q0 -131 -58.5 -203t-149.5 -72zM248 57q62 0 94.5 55.5t32.5 151.5q0 91 -32 148t-95 57q-62 0 -95 -55t-33 -150q0 -92 31.5 -149.5t96.5 -57.5zM314 578q-29 0 -71.5 28t-57.5 28
q-18 0 -26.5 -12.5t-8.5 -41.5h-50q0 119 83 119q29 0 71.5 -28t58.5 -28q18 0 26 12t8 42h48q0 -119 -81 -119z" />
    <glyph glyph-name="odieresis" unicode="&#xf6;" horiz-adv-x="495" 
d="M248 -11q-92 0 -150.5 72t-58.5 203q0 132 58.5 203.5t150.5 71.5t150 -71.5t58 -203.5q0 -131 -58.5 -203t-149.5 -72zM248 57q62 0 94.5 55.5t32.5 151.5q0 91 -32 148t-95 57q-62 0 -95 -55t-33 -150q0 -92 31.5 -149.5t96.5 -57.5zM288 583v90h80v-90h-80zM128 583
v90h82v-90h-82z" />
    <glyph glyph-name="divide" unicode="&#xf7;" horiz-adv-x="535" 
d="M224 463v91h85v-91h-85zM49 295v69h437v-69h-437zM224 105v92h85v-92h-85z" />
    <glyph glyph-name="oslash" unicode="&#xf8;" horiz-adv-x="495" 
d="M404 460q52 -72 52 -196q0 -131 -58.5 -203t-149.5 -72q-67 0 -119 40l-45 -70l-45 28l52 83q-52 72 -52 194q0 132 58.5 203.5t150.5 71.5q68 0 117 -39l45 69l45 -28zM139 138l187 297q-30 35 -78 35q-62 0 -96 -56t-34 -150q0 -74 21 -126zM355 389l-189 -297
q31 -36 82 -36q62 0 95 56t33 152q0 73 -21 125z" />
    <glyph glyph-name="ugrave" unicode="&#xf9;" horiz-adv-x="502" 
d="M190 -11q-64 0 -97 37.5t-33 109.5v392h80v-377q0 -48 18 -70t60 -22q65 0 139 76v393h81v-528h-81v73q-76 -84 -167 -84zM254 584l-120 156h95l80 -156h-55z" />
    <glyph glyph-name="uacute" unicode="&#xfa;" horiz-adv-x="502" 
d="M190 -11q-64 0 -97 37.5t-33 109.5v392h80v-377q0 -48 18 -70t60 -22q65 0 139 76v393h81v-528h-81v73q-76 -84 -167 -84zM194 584l81 156h93l-120 -156h-54z" />
    <glyph glyph-name="ucircumflex" unicode="&#xfb;" horiz-adv-x="502" 
d="M190 -11q-64 0 -97 37.5t-33 109.5v392h80v-377q0 -48 18 -70t60 -22q65 0 139 76v393h81v-528h-81v73q-76 -84 -167 -84zM112 581l110 159h57l110 -159h-50l-88 88l-89 -88h-50z" />
    <glyph glyph-name="udieresis" unicode="&#xfc;" horiz-adv-x="502" 
d="M190 -11q-64 0 -97 37.5t-33 109.5v392h80v-377q0 -48 18 -70t60 -22q65 0 139 76v393h81v-528h-81v73q-76 -84 -167 -84zM290 583v90h80v-90h-80zM130 583v90h82v-90h-82z" />
    <glyph glyph-name="yacute" unicode="&#xfd;" horiz-adv-x="455" 
d="M88 -201q-46 0 -82 12l16 64q35 -8 64 -8q33 0 50.5 18.5t31.5 63.5l15 46l-165 533h83l80 -276q22 -75 43 -159h2q18 71 45 165l78 270h77l-182 -586q-25 -77 -58 -110t-98 -33zM170 584l81 156h93l-120 -156h-54z" />
    <glyph glyph-name="thorn" unicode="&#xfe;" horiz-adv-x="508" 
d="M64 -200v940h81v-279q64 78 145 78t130 -68.5t49 -205.5t-50.5 -205t-133.5 -68t-140 72v-264h-81zM270 59q55 0 86.5 50t31.5 155q0 102 -32 153.5t-87 51.5q-61 0 -124 -73v-265q59 -72 125 -72z" />
    <glyph glyph-name="ydieresis" unicode="&#xff;" horiz-adv-x="455" 
d="M88 -201q-46 0 -82 12l16 64q35 -8 64 -8q33 0 50.5 18.5t31.5 63.5l15 46l-165 533h83l80 -276q22 -75 43 -159h2q18 71 45 165l78 270h77l-182 -586q-25 -77 -58 -110t-98 -33zM267 583v90h80v-90h-80zM107 583v90h82v-90h-82z" />
    <glyph glyph-name="dotlessi" unicode="&#x131;" horiz-adv-x="220" 
d="M69 0v528h81v-528h-81z" />
    <glyph glyph-name="Lslash" unicode="&#x141;" horiz-adv-x="484" 
d="M76 0v312l-62 -28v69l62 29v358h84v-326l123 60v-71l-123 -57v-270h293v-76h-377z" />
    <glyph glyph-name="lslash" unicode="&#x142;" horiz-adv-x="260" 
d="M90 0v296l-71 -33v68l71 34v375h80v-345l71 34v-68l-71 -34v-327h-80z" />
    <glyph glyph-name="OE" unicode="&#x152;" horiz-adv-x="927" 
d="M502 638v102h370v-77h-294v-235h216v-75h-216v-277h312v-76h-388v104q-61 -118 -188 -118q-120 0 -194 101t-74 283t74 283t194 101q125 0 188 -116zM314 62q85 0 133.5 81t48.5 227t-48.5 226.5t-133.5 80.5q-86 0 -135 -80.5t-49 -226.5t49 -227t135 -81z" />
    <glyph glyph-name="oe" unicode="&#x153;" horiz-adv-x="803" 
d="M413 435q26 51 68.5 77.5t93.5 26.5q90 0 140 -70t50 -202v-20h-313q3 -92 36.5 -141t91.5 -49q43 0 71.5 23t52.5 69l56 -35q-61 -125 -185 -125q-111 0 -162 103q-55 -103 -165 -103q-92 0 -150.5 72t-58.5 203q0 132 58.5 203.5t150.5 71.5q111 0 165 -104zM453 308
h234q-4 76 -31.5 119t-80.5 43q-47 0 -81 -40.5t-41 -121.5zM248 57q62 0 94.5 55.5t32.5 151.5q0 91 -32 148t-95 57q-62 0 -95 -55t-33 -150q0 -92 31.5 -149.5t96.5 -57.5z" />
    <glyph glyph-name="Scaron" unicode="&#x160;" horiz-adv-x="547" 
d="M279 -12q-171 0 -246 175l72 33q58 -134 174 -134q65 0 102 32.5t37 86.5q0 31 -11.5 55.5t-36.5 44t-45.5 31.5t-58.5 30q-35 17 -48.5 24t-44 24.5t-44 32t-31.5 37t-25 50t-7 60.5q0 80 57.5 132t143.5 52q155 0 221 -156l-72 -35q-51 117 -150 117q-52 0 -84.5 -30
t-32.5 -77q0 -31 11 -55.5t36 -44t45 -31.5t57 -30q30 -14 42 -20t39 -21t39.5 -25.5t31.5 -29t27.5 -36.5t15.5 -43.5t7 -53.5q0 -83 -60.5 -139t-160.5 -56zM245 787l-110 159h52l88 -91l88 91h49l-110 -159h-57z" />
    <glyph glyph-name="scaron" unicode="&#x161;" horiz-adv-x="435" 
d="M217 -11q-130 0 -197 108l55 40q54 -82 143 -82q50 0 77.5 20.5t27.5 57.5q0 35 -28.5 58.5t-68.5 37.5t-80.5 31t-69 51t-28.5 86q0 63 46.5 102.5t120.5 39.5q112 0 174 -95l-54 -42q-46 70 -121 70q-43 0 -65.5 -19.5t-22.5 -51.5q0 -36 28 -58.5t68 -36.5t80.5 -30
t68.5 -51t28 -88q0 -67 -52 -107.5t-130 -40.5zM189 584l-110 159h52l88 -91l88 91h49l-110 -159h-57z" />
    <glyph glyph-name="Ydieresis" unicode="&#x178;" horiz-adv-x="526" 
d="M221 0v305l-205 435h86l162 -358h2l162 358h81l-204 -433v-307h-84zM303 786v90h80v-90h-80zM143 786v90h82v-90h-82z" />
    <glyph glyph-name="Zcaron" unicode="&#x17d;" horiz-adv-x="527" 
d="M33 0v63l354 600h-330v77h428v-63l-352 -601h352v-76h-452zM235 787l-110 159h52l88 -91l88 91h49l-110 -159h-57z" />
    <glyph glyph-name="zcaron" unicode="&#x17e;" horiz-adv-x="430" 
d="M32 0v52l257 409h-235v67h331v-53l-257 -409h268v-66h-364zM186 584l-110 159h52l88 -91l88 91h49l-110 -159h-57z" />
    <glyph glyph-name="florin" unicode="&#x192;" horiz-adv-x="342" 
d="M109 359h-80l10 66h79l25 183q18 135 159 135q8 0 44 -4l-11 -68q-27 3 -32 3q-71 0 -80 -69l-25 -180h98l-10 -66h-97l-59 -432q-10 -67 -47.5 -98t-105.5 -31q-16 0 -49 3l12 67q12 -3 30 -3q71 0 82 72z" />
    <glyph glyph-name="circumflex" unicode="&#x2c6;" 
d="M83 581l110 159h57l110 -159h-50l-88 88l-89 -88h-50z" />
    <glyph glyph-name="caron" unicode="&#x2c7;" 
d="M193 584l-110 159h52l88 -91l88 91h49l-110 -159h-57z" />
    <glyph glyph-name="breve" unicode="&#x2d8;" 
d="M223 579q-62 0 -96 44t-38 121h52q11 -105 82 -105t81 105h51q-4 -78 -37.5 -121.5t-94.5 -43.5z" />
    <glyph glyph-name="dotaccent" unicode="&#x2d9;" 
d="M175 583v88h93v-88h-93z" />
    <glyph glyph-name="ring" unicode="&#x2da;" 
d="M222 573q-38 0 -61.5 27.5t-23.5 69.5t23 68.5t62 26.5q38 0 61.5 -26.5t23.5 -68.5t-23.5 -69.5t-61.5 -27.5zM222 613q20 0 31 16.5t11 40.5q0 23 -11 39t-31 16t-31 -16t-11 -39q0 -24 11 -40.5t31 -16.5z" />
    <glyph glyph-name="ogonek" unicode="&#x2db;" 
d="M217 -189q-42 0 -65 21t-23 57q0 30 21 61t53 53h47q-60 -43 -60 -100q0 -47 44 -47q35 0 78 24l21 -31q-57 -38 -116 -38z" />
    <glyph glyph-name="tilde" unicode="&#x2dc;" 
d="M288 578q-29 0 -71.5 28t-57.5 28q-18 0 -26.5 -12.5t-8.5 -41.5h-50q0 119 83 119q29 0 71.5 -28t58.5 -28q18 0 26 12t8 42h48q0 -119 -81 -119z" />
    <glyph glyph-name="hungarumlaut" unicode="&#x2dd;" 
d="M208 584l83 156h95l-123 -156h-55zM62 584l80 156h97l-121 -156h-56z" />
    <glyph glyph-name="endash" unicode="&#x2013;" horiz-adv-x="557" 
d="M52 277v72h453v-72h-453z" />
    <glyph glyph-name="emdash" unicode="&#x2014;" horiz-adv-x="762" 
d="M51 277v72h659v-72h-659z" />
    <glyph glyph-name="quoteleft" unicode="&#x2018;" horiz-adv-x="238" 
d="M73 532v96l47 112h38l-27 -105h33v-103h-91z" />
    <glyph glyph-name="quoteright" unicode="&#x2019;" horiz-adv-x="238" 
d="M80 532l27 104h-35v104h92v-96l-46 -112h-38z" />
    <glyph glyph-name="quotesinglbase" unicode="&#x201a;" horiz-adv-x="238" 
d="M80 -105l27 105h-35v104h92v-96l-46 -113h-38z" />
    <glyph glyph-name="quotedblleft" unicode="&#x201c;" horiz-adv-x="411" 
d="M247 532v96l46 112h37l-26 -105h34v-103h-91zM73 532v96l47 112h38l-27 -105h33v-103h-91z" />
    <glyph glyph-name="quotedblright" unicode="&#x201d;" horiz-adv-x="411" 
d="M254 532l27 104h-34v104h90v-96l-46 -112h-37zM80 532l27 104h-35v104h92v-96l-46 -112h-38z" />
    <glyph glyph-name="quotedblbase" unicode="&#x201e;" horiz-adv-x="411" 
d="M254 -105l27 105h-34v104h90v-96l-46 -113h-37zM80 -105l27 105h-35v104h92v-96l-46 -113h-38z" />
    <glyph glyph-name="dagger" unicode="&#x2020;" horiz-adv-x="484" 
d="M198 -200l14 616l-173 -10v77l173 -12l-14 269h87l-13 -269l173 12v-77l-173 10l13 -616h-87z" />
    <glyph glyph-name="daggerdbl" unicode="&#x2021;" horiz-adv-x="483" 
d="M198 -200l14 234l-166 -11v76l166 -11l-10 184l10 181l-166 -11v76l166 -11l-14 233h87l-14 -233l166 11v-76l-166 11l11 -181l-11 -184l166 11v-76l-166 11l14 -234h-87z" />
    <glyph glyph-name="bullet" unicode="&#x2022;" horiz-adv-x="463" 
d="M231 232q-51 0 -84.5 33.5t-33.5 84.5q0 52 33.5 85.5t84.5 33.5q52 0 85.5 -33.5t33.5 -85.5q0 -51 -33.5 -84.5t-85.5 -33.5z" />
    <glyph glyph-name="ellipsis" unicode="&#x2026;" horiz-adv-x="711" 
d="M545 0v104h93v-104h-93zM308 0v104h93v-104h-93zM71 0v104h93v-104h-93z" />
    <glyph glyph-name="perthousand" unicode="&#x2030;" horiz-adv-x="1170" 
d="M191 299q-70 0 -108 58.5t-38 168.5t38 168t108 58t107 -58t37 -168q0 -111 -37 -169t-107 -58zM194 0l376 740h70l-376 -740h-70zM981 -10q-70 0 -108 58.5t-38 168.5t38 168t108 58q69 0 106 -58t37 -168q0 -111 -37 -169t-106 -58zM646 -10q-70 0 -108 58.5t-38 168.5
t38 168t108 58q69 0 106 -58t37 -168q0 -111 -37 -169t-106 -58zM191 362q39 0 57 39.5t18 124.5q0 163 -75 163q-39 0 -57.5 -39.5t-18.5 -123.5q0 -164 76 -164zM981 52q39 0 57 40t18 125q0 162 -75 162q-40 0 -58.5 -39t-18.5 -123q0 -165 77 -165zM646 52q39 0 57 40
t18 125q0 162 -75 162q-40 0 -58.5 -39t-18.5 -123q0 -165 77 -165z" />
    <glyph glyph-name="guilsinglleft" unicode="&#x2039;" horiz-adv-x="276" 
d="M154 0l-124 264l124 263h79l-121 -263l121 -264h-79z" />
    <glyph glyph-name="guilsinglright" unicode="&#x203a;" horiz-adv-x="276" 
d="M42 0l122 264l-122 263h80l124 -263l-124 -264h-80z" />
    <glyph glyph-name="fraction" unicode="&#x2044;" horiz-adv-x="439" 
d="M-4 0l372 740h74l-372 -740h-74z" />
    <glyph glyph-name="Euro" unicode="&#x20ac;" horiz-adv-x="604" 
d="M114 413h-99v64h104q16 141 76.5 209t154.5 68q89 0 141.5 -57.5t69.5 -154.5l-78 -14q-14 73 -44.5 112.5t-87.5 39.5q-128 0 -151 -203h176v-64h-181q-1 -13 -1 -39q0 -33 1 -48h181v-64h-176q24 -203 155 -203q110 0 140 160l76 -12q-17 -98 -72.5 -159.5
t-143.5 -61.5q-203 0 -236 276h-104v64h99q-1 15 -1 47q0 27 1 40z" />
    <glyph glyph-name="recordright" unicode="&#x2117;" horiz-adv-x="712" 
d="M356 -14q-136 0 -226.5 111t-90.5 272q0 162 91 273.5t226 111.5t226 -111t91 -272t-91.5 -273t-225.5 -112zM356 30q115 0 192 98.5t77 240.5q0 143 -77 242t-192 99t-192 -98.5t-77 -240.5q0 -143 77 -242t192 -99zM246 155v421h124q131 0 131 -122q0 -126 -135 -126
h-60v-173h-60zM306 382h62q73 0 73 70q0 37 -18.5 53t-55.5 16h-61v-139z" />
    <glyph glyph-name="trademark" unicode="&#x2122;" horiz-adv-x="748" 
d="M350 311v429h74l98 -341l98 341h76v-429h-58v316l-92 -316h-50l-93 317v-317h-53zM130 311v374h-105v55h272v-55h-107v-374h-60z" />
    <glyph glyph-name="minus" unicode="&#x2212;" horiz-adv-x="535" 
d="M49 295v69h437v-69h-437z" />
    <glyph glyph-name="radical" unicode="&#x221a;" horiz-adv-x="501" 
d="M177 -2l-160 530h81l85 -300q22 -77 38 -142h2q15 57 38 142l147 512h76l-223 -742h-84z" />
    <glyph glyph-name="registered.alt" unicode="&#xe000;" horiz-adv-x="453" 
d="M227 291q-81 0 -136 67t-55 165q0 97 55 164t136 67t136 -67t55 -164t-55 -164.5t-136 -67.5zM227 319q68 0 114 59t46 145q0 84 -46 143t-114 59t-114 -58.5t-46 -143.5t46 -144.5t114 -59.5zM154 402v249h73q78 0 78 -74q0 -53 -42 -68l46 -107h-40l-46 101h-32v-101
h-37zM191 536h34q42 0 42 41q0 38 -42 38h-34v-79z" />
    <glyph glyph-name="fl" unicode="&#xfb02;" horiz-adv-x="504" 
d="M355 0v740h79v-740h-79zM98 0v461h-77v67h77v80q0 65 36 99t105 34q33 0 37 -2v-67q-1 0 -13.5 0.5t-14.5 0.5q-70 0 -70 -67v-78h94v-67h-94v-461h-80z" />
    </font>
</defs>
</svg>
