<svg xmlns="http://www.w3.org/2000/svg" viewBox="0 0 83.9 82.2"><g fill="none" stroke="#FFF" stroke-width=".462" stroke-miterlimit="300"><path d="M81.7 3.7l-1.8 1.6 1.8 1.5 1.9-1.5zM81.7 7.1l-1.8 1.6 1.8 1.5 1.9-1.5zM81.7 10.5l-1.8 1.6 1.8 1.6 1.9-1.6zM81.7 13.9l-1.8 1.6 1.8 1.6 1.9-1.6zM81.7 17.3l-1.8 1.6 1.8 1.6 1.9-1.6zM81.7 20.7l-1.8 1.6 1.8 1.6 1.9-1.6zM81.7 24.2l-1.8 1.5 1.8 1.6 1.9-1.6zM81.7 27.6l-1.8 1.5 1.8 1.6 1.9-1.6zM81.7 31l-1.8 1.5 1.8 1.6 1.9-1.6zM81.7 34.4l-1.8 1.5 1.8 1.6 1.9-1.6zM81.7 37.8l-1.8 1.5 1.8 1.6 1.9-1.6zM4.5 80.4l2 1.4 1.9-1.4-1.9-1.5zM8.7 80.4l1.9 1.4 1.9-1.4-1.9-1.5zM12.9 80.4l1.9 1.4 1.9-1.4-1.9-1.5zM17.1 80.4l1.9 1.4 1.9-1.4-1.9-1.5zM21.2 80.4l2 1.4 1.9-1.4-1.9-1.5zM25.4 80.4l1.9 1.4 2-1.4-2-1.5zM29.6 80.4l1.9 1.4 1.9-1.4-1.9-1.5zM33.8 80.4l1.9 1.4 1.9-1.4-1.9-1.5zM37.9 80.4l2 1.4 1.9-1.4-1.9-1.5zM2.2 3.7L4 5.3 2.2 6.8.4 5.3zM2.2 7.1L4 8.7l-1.8 1.5L.4 8.7zM2.2 10.5L4 12.1l-1.8 1.6-1.8-1.6zM2.2 13.9L4 15.5l-1.8 1.6-1.8-1.6zM2.2 17.3L4 18.9l-1.8 1.6-1.8-1.6zM2.2 20.7L4 22.3l-1.8 1.6-1.8-1.6zM2.2 24.2L4 25.7l-1.8 1.6-1.8-1.6zM2.2 27.6L4 29.1l-1.8 1.6-1.8-1.6zM2.2 31L4 32.5l-1.8 1.6-1.8-1.6zM2.2 34.4L4 35.9l-1.8 1.6-1.8-1.6zM2.2 37.8L4 39.3l-1.8 1.6-1.8-1.6zM4.5 1.8l2-1.5 1.9 1.5-1.9 1.5zM8.7 1.8L10.6.3l1.9 1.5-1.9 1.5zM12.9 1.8L14.8.3l1.9 1.5-1.9 1.5zM17.1 1.8L19 .3l1.9 1.5L19 3.3zM21.2 1.8l2-1.5 1.9 1.5-1.9 1.5zM25.4 1.8L27.3.3l2 1.5-2 1.5zM29.6 1.8L31.5.3l1.9 1.5-1.9 1.5zM33.8 1.8L35.7.3l1.9 1.5-1.9 1.5zM37.9 1.8l2-1.5 1.9 1.5-1.9 1.5zM2.2.3L4 1.9 2.2 3.4.4 1.9zM79.4 1.8L77.5.3l-2 1.5 2 1.5zM75.2 1.8L73.3.3l-1.9 1.5 1.9 1.5zM71 1.8L69.1.3l-1.9 1.5 1.9 1.5zM66.9 1.8l-2-1.5L63 1.8l1.9 1.5zM62.7 1.8L60.8.3l-2 1.5 2 1.5zM58.5 1.8L56.6.3l-1.9 1.5 1.9 1.5zM54.3 1.8L52.4.3l-1.9 1.5 1.9 1.5zM50.1 1.8L48.2.3l-1.9 1.5 1.9 1.5zM46 1.8L44 .3l-1.9 1.5L44 3.3zM81.7.3l-1.8 1.6 1.8 1.5 1.9-1.5zM2.2 81.9L4 80.3l-1.8-1.6-1.8 1.6zM2.2 78.5L4 76.9l-1.8-1.6-1.8 1.6zM2.2 75.1L4 73.5l-1.8-1.6-1.8 1.6zM2.2 71.6L4 70.1l-1.8-1.6-1.8 1.6zM2.2 68.2L4 66.7l-1.8-1.6-1.8 1.6zM2.2 64.8L4 63.3l-1.8-1.6-1.8 1.6zM2.2 61.4L4 59.9l-1.8-1.6-1.8 1.6zM2.2 58L4 56.5l-1.8-1.6-1.8 1.6zM2.2 54.6L4 53l-1.8-1.5L.4 53zM2.2 51.2L4 49.6l-1.8-1.5-1.8 1.5zM2.2 47.8L4 46.2l-1.8-1.5-1.8 1.5zM2.2 44.4L4 42.8l-1.8-1.5-1.8 1.5zM79.4 80.4l-1.9 1.4-2-1.4 2-1.5zM75.2 80.4l-1.9 1.4-1.9-1.4 1.9-1.5zM71 80.4l-1.9 1.4-1.9-1.4 1.9-1.5zM66.9 80.4l-2 1.4-1.9-1.4 1.9-1.5zM62.7 80.4l-1.9 1.4-2-1.4 2-1.5zM58.5 80.4l-1.9 1.4-1.9-1.4 1.9-1.5zM54.3 80.4l-1.9 1.4-1.9-1.4 1.9-1.5zM50.1 80.4l-1.9 1.4-1.9-1.4 1.9-1.5zM46 80.4l-2 1.4-1.9-1.4 1.9-1.5zM81.7 81.9l-1.8-1.6 1.8-1.6 1.9 1.6zM81.7 78.5l-1.8-1.6 1.8-1.6 1.9 1.6zM81.7 75.1l-1.8-1.6 1.8-1.6 1.9 1.6zM81.7 71.6l-1.8-1.5 1.8-1.6 1.9 1.6zM81.7 68.2l-1.8-1.5 1.8-1.6 1.9 1.6zM81.7 64.8l-1.8-1.5 1.8-1.6 1.9 1.6zM81.7 61.4l-1.8-1.5 1.8-1.6 1.9 1.6zM81.7 58l-1.8-1.5 1.8-1.6 1.9 1.6zM81.7 54.6L79.9 53l1.8-1.5 1.9 1.5zM81.7 51.2l-1.8-1.6 1.8-1.5 1.9 1.5zM81.7 47.8l-1.8-1.6 1.8-1.5 1.9 1.5zM81.7 44.4l-1.8-1.6 1.8-1.5 1.9 1.5z"/></g><path fill="#FFF" d="M41 5.7c0-.5.4-.9.9-.9s.9.4.9.9-.4.9-.9.9-.9-.4-.9-.9zm-3.7 0c0-.5.4-.9.9-.9s.9.4.9.9-.4.9-.9.9-.9-.4-.9-.9zm-3.8 0c0-.5.4-.9.9-.9s.9.4.9.9-.4.9-.9.9-.9-.4-.9-.9zm-3.7 0c0-.5.4-.9.9-.9s.9.4.9.9-.4.9-.9.9-.9-.4-.9-.9zm-3.8 0c0-.5.4-.9.9-.9s.9.4.9.9-.4.9-.9.9-.9-.4-.9-.9zm-3.7 0c0-.5.4-.9.9-.9s.9.4.9.9-.4.9-.9.9-.9-.4-.9-.9zm-3.8 0c0-.5.4-.9.9-.9s.9.4.9.9-.4.9-.9.9-.9-.4-.9-.9zm-3.8 0c0-.5.4-.9.9-.9s.9.4.9.9-.4.9-.9.9c-.4 0-.9-.4-.9-.9zm-3.7 0c0-.5.4-.9.9-.9s.9.4.9.9-.4.9-.9.9-.9-.4-.9-.9zm-3.8 0c0-.5.4-.9.9-.9s.9.4.9.9-.4.9-.9.9c-.4 0-.9-.4-.9-.9zM5.5 40.9c0-.5.4-.9.9-.9s.9.4.9.9-.4.9-.9.9-.9-.4-.9-.9zm0-3.7c0-.5.4-.9.9-.9s.9.4.9.9-.4.9-.9.9-.9-.4-.9-.9zm0-3.8c0-.5.4-.9.9-.9s.9.4.9.9-.4.9-.9.9-.9-.4-.9-.9zm0-3.8c0-.5.4-.9.9-.9s.9.4.9.9-.4.9-.9.9c-.5.1-.9-.3-.9-.9zm0-3.7c0-.5.4-.9.9-.9s.9.4.9.9-.4.9-.9.9-.9-.4-.9-.9zm0-3.8c0-.5.4-.9.9-.9s.9.4.9.9-.4.9-.9.9c-.5.1-.9-.3-.9-.9zm0-3.7c0-.5.4-.9.9-.9s.9.4.9.9-.4.9-.9.9-.9-.4-.9-.9zm0-3.8c0-.5.4-.9.9-.9s.9.4.9.9-.4.9-.9.9c-.5.1-.9-.4-.9-.9zm0-3.7c0-.5.4-.9.9-.9s.9.4.9.9-.4.9-.9.9-.9-.4-.9-.9zm0-3.8c0-.5.4-.9.9-.9s.9.4.9.9-.4.9-.9.9c-.5.1-.9-.4-.9-.9z"/><path fill="#FFF" d="M74.8 5.7c0-.5.4-.9.9-.9s.9.4.9.9-.4.9-.9.9-.9-.4-.9-.9zm-3.7 0c0-.5.4-.9.9-.9s.9.4.9.9-.4.9-.9.9-.9-.4-.9-.9zm-3.8 0c0-.5.4-.9.9-.9s.9.4.9.9-.4.9-.9.9-.9-.4-.9-.9zm-3.8 0c0-.5.4-.9.9-.9s.9.4.9.9-.4.9-.9.9c-.4 0-.9-.4-.9-.9zm-3.7 0c0-.5.4-.9.9-.9s.9.4.9.9-.4.9-.9.9-.9-.4-.9-.9zm-3.8 0c0-.5.4-.9.9-.9s.9.4.9.9-.4.9-.9.9c-.4 0-.9-.4-.9-.9zm-3.7 0c0-.5.4-.9.9-.9s.9.4.9.9-.4.9-.9.9-.9-.4-.9-.9zm-3.8 0c0-.5.4-.9.9-.9s.9.4.9.9-.4.9-.9.9c-.4 0-.9-.4-.9-.9zm-3.7 0c0-.5.4-.9.9-.9s.9.4.9.9-.4.9-.9.9-.9-.4-.9-.9zm-3.8 0c0-.5.4-.9.9-.9s.9.4.9.9-.4.9-.9.9-.9-.4-.9-.9zM76.5 40.9c0-.5.4-.9.9-.9s.9.4.9.9-.4.9-.9.9c-.4 0-.9-.4-.9-.9zm0-3.7c0-.5.4-.9.9-.9s.9.4.9.9-.4.9-.9.9c-.4 0-.9-.4-.9-.9zm0-3.8c0-.5.4-.9.9-.9s.9.4.9.9-.4.9-.9.9c-.4 0-.9-.4-.9-.9zm0-3.8c0-.5.4-.9.9-.9s.9.4.9.9-.4.9-.9.9c-.4.1-.9-.3-.9-.9zm0-3.7c0-.5.4-.9.9-.9s.9.4.9.9-.4.9-.9.9c-.4 0-.9-.4-.9-.9zm0-3.8c0-.5.4-.9.9-.9s.9.4.9.9-.4.9-.9.9c-.4.1-.9-.3-.9-.9zm0-3.7c0-.5.4-.9.9-.9s.9.4.9.9-.4.9-.9.9c-.4 0-.9-.4-.9-.9zm0-3.8c0-.5.4-.9.9-.9s.9.4.9.9-.4.9-.9.9c-.4.1-.9-.4-.9-.9zm0-3.7c0-.5.4-.9.9-.9s.9.4.9.9-.4.9-.9.9c-.4 0-.9-.4-.9-.9zm0-3.8c0-.5.4-.9.9-.9s.9.4.9.9-.4.9-.9.9c-.4.1-.9-.4-.9-.9zM41 76.2c0-.5.4-.9.9-.9s.9.4.9.9-.4.9-.9.9-.9-.4-.9-.9zm-3.7 0c0-.5.4-.9.9-.9s.9.4.9.9-.4.9-.9.9-.9-.4-.9-.9zm-3.8 0c0-.5.4-.9.9-.9s.9.4.9.9-.4.9-.9.9-.9-.4-.9-.9zm-3.7 0c0-.5.4-.9.9-.9s.9.4.9.9-.4.9-.9.9-.9-.4-.9-.9zm-3.8 0c0-.5.4-.9.9-.9s.9.4.9.9-.4.9-.9.9-.9-.4-.9-.9zm-3.7 0c0-.5.4-.9.9-.9s.9.4.9.9-.4.9-.9.9-.9-.4-.9-.9zm-3.8 0c0-.5.4-.9.9-.9s.9.4.9.9-.4.9-.9.9-.9-.4-.9-.9zm-3.8 0c0-.5.4-.9.9-.9s.9.4.9.9-.4.9-.9.9c-.4 0-.9-.4-.9-.9zm-3.7 0c0-.5.4-.9.9-.9s.9.4.9.9-.4.9-.9.9-.9-.4-.9-.9zm-3.8 0c0-.5.4-.9.9-.9s.9.4.9.9-.4.9-.9.9c-.4 0-.9-.4-.9-.9zM5.5 74.7c0-.5.4-.9.9-.9s.9.4.9.9-.4.9-.9.9-.9-.4-.9-.9zm0-3.8c0-.5.4-.9.9-.9s.9.4.9.9-.4.9-.9.9c-.5.1-.9-.3-.9-.9zm0-3.7c0-.5.4-.9.9-.9s.9.4.9.9-.4.9-.9.9-.9-.4-.9-.9zm0-3.8c0-.5.4-.9.9-.9s.9.4.9.9-.4.9-.9.9c-.5.1-.9-.3-.9-.9zm0-3.7c0-.5.4-.9.9-.9s.9.4.9.9-.4.9-.9.9-.9-.4-.9-.9zm0-3.8c0-.5.4-.9.9-.9s.9.4.9.9-.4.9-.9.9c-.5.1-.9-.4-.9-.9zm0-3.7c0-.5.4-.9.9-.9s.9.4.9.9-.4.9-.9.9-.9-.4-.9-.9zm0-3.8c0-.5.4-.9.9-.9s.9.4.9.9-.4.9-.9.9c-.5.1-.9-.4-.9-.9zm0-3.7c0-.5.4-.9.9-.9s.9.4.9.9-.4.9-.9.9-.9-.4-.9-.9zm0-3.8c0-.5.4-.9.9-.9s.9.4.9.9-.4.9-.9.9-.9-.4-.9-.9z"/><path fill="#FFF" d="M74.8 76.2c0-.5.4-.9.9-.9s.9.4.9.9-.4.9-.9.9-.9-.4-.9-.9zm-3.7 0c0-.5.4-.9.9-.9s.9.4.9.9-.4.9-.9.9-.9-.4-.9-.9zm-3.8 0c0-.5.4-.9.9-.9s.9.4.9.9-.4.9-.9.9-.9-.4-.9-.9zm-3.8 0c0-.5.4-.9.9-.9s.9.4.9.9-.4.9-.9.9c-.4 0-.9-.4-.9-.9zm-3.7 0c0-.5.4-.9.9-.9s.9.4.9.9-.4.9-.9.9-.9-.4-.9-.9zm-3.8 0c0-.5.4-.9.9-.9s.9.4.9.9-.4.9-.9.9c-.4 0-.9-.4-.9-.9zm-3.7 0c0-.5.4-.9.9-.9s.9.4.9.9-.4.9-.9.9-.9-.4-.9-.9zm-3.8 0c0-.5.4-.9.9-.9s.9.4.9.9-.4.9-.9.9-.9-.4-.9-.9zm-3.7 0c0-.5.4-.9.9-.9s.9.4.9.9-.4.9-.9.9-.9-.4-.9-.9zm-3.8 0c0-.5.4-.9.9-.9s.9.4.9.9-.4.9-.9.9-.9-.4-.9-.9zM76.5 74.7c0-.5.4-.9.9-.9s.9.4.9.9-.4.9-.9.9c-.4 0-.9-.4-.9-.9zm0-3.8c0-.5.4-.9.9-.9s.9.4.9.9-.4.9-.9.9c-.4.1-.9-.3-.9-.9zm0-3.7c0-.5.4-.9.9-.9s.9.4.9.9-.4.9-.9.9c-.4 0-.9-.4-.9-.9zm0-3.8c0-.5.4-.9.9-.9s.9.4.9.9-.4.9-.9.9c-.4.1-.9-.3-.9-.9zm0-3.7c0-.5.4-.9.9-.9s.9.4.9.9-.4.9-.9.9c-.4 0-.9-.4-.9-.9zm0-3.8c0-.5.4-.9.9-.9s.9.4.9.9-.4.9-.9.9c-.4.1-.9-.4-.9-.9zm0-3.7c0-.5.4-.9.9-.9s.9.4.9.9-.4.9-.9.9c-.4 0-.9-.4-.9-.9zm0-3.8c0-.5.4-.9.9-.9s.9.4.9.9-.4.9-.9.9c-.4.1-.9-.4-.9-.9zm0-3.7c0-.5.4-.9.9-.9s.9.4.9.9-.4.9-.9.9c-.4 0-.9-.4-.9-.9zm0-3.8c0-.5.4-.9.9-.9s.9.4.9.9-.4.9-.9.9c-.4 0-.9-.4-.9-.9z"/><g fill="none" stroke="#FFF" stroke-width=".676"><path d="M42 8.8H10.2v33M42 8.8h31.7v33.4"/><path d="M42 73.4H10.2V41.1M42 73.4h31.7V41.1"/></g></svg>