<svg xmlns="http://www.w3.org/2000/svg" viewBox="0 0 81.6 80.8"><path fill="#AC1F2D" d="M0 0v80.8h30.6c2.9 0 5.1-1.4 6.6-2.9l3.6-3.5 3.6 3.5c.5.5 2.8 2.9 6.6 2.9h30.6V0H0z"/><path fill="#FFF" d="M35 50c.8 0 1.2-.4 1.2-1.1 0-.7-.5-1-1.2-1h-.3V50h.3zm-1.2 0h.3v-2.1h-.3v-.5H35c1.1 0 1.8.6 1.8 1.5s-.6 1.6-1.8 1.6h-1.1V50h-.1zM37.4 50h.4v-2.1h-.4v-.5h2.3v.9h-.5v-.5h-.9v.9h.9v.4h-.9v.9h.9v-.4h.5v.8h-2.3M41.7 50h.4v-2.1h-.4v-.5H43v.5h-.4V50h.9v-.5h.5v.9h-2.3M46.5 49l-.4-1.2-.4 1.2h.8zm-1.9 1h.3l.8-2.1h-.3v-.5H47v.5h-.3l.8 2.1h.3v.5h-1.2V50h.4l-.2-.5h-1.1l-.3.5h.4v.5h-1.2V50zM35.7 12.6h.6V8.8h-.6v-.7h2v.7H37v3.8h1.6v-.7h.7v1.3h-3.6M43.8 10.9L43 8.7l-.8 2.2h1.6zm-3.4 1.7h.5l1.4-3.9h-.6v-.6h2.6v.6h-.6l1.4 3.9h.5v.6h-1.8v-.6h.6l-.4-1.1h-2l-.4 1.1h.6v.6h-1.8v-.6z"/><g fill="#FFF"><path d="M12.1 29.3h-1.7V20h2.3c1.2 0 1.5 1.1 1.5 1.9v5.5c0 1.2-.3 1.9-2.1 1.9m.6 11.3h-2.3v-9.5h1.7c1.5 0 2.1.5 2.1 1.9v5.7c0 .7-.2 1.9-1.5 1.9m0-22.4H8.5v24.3h4.2c2.1 0 3.4-1.5 3.4-3.8V33c0-1.3-.4-2.2-1.2-2.8.8-.6 1.2-1.5 1.2-2.8V22c.1-2.3-1.3-3.8-3.4-3.8M24 40.9c-1.2 0-2.1-.9-2.1-2.2V22c0-1.3.9-2.2 2.1-2.2s2.1 1 2.1 2.2v16.7c0 1.2-.9 2.2-2.1 2.2m0-23c-2.2 0-4 1.8-4 4.1v16.7c0 2.3 1.8 4.1 4 4.1s4-1.8 4-4.1V22c0-2.3-1.8-4.1-4-4.1M36.1 40.6h-2.2V20.1h2.2c.5 0 1.9 0 1.9 2.3v16c.1 2-1.1 2.2-1.9 2.2m0-22.4H32v24.2h4.1c2.3 0 3.9-1.6 3.9-4.1v-16c0-2.5-1.5-4.1-3.9-4.1"/></g><path fill="#FFF" d="M44 42.5h6.5v-1.9h-4.6v-9.7h3.4V29h-3.4v-8.9h4.6v-1.9H44M57.8 17.9c-2.4 0-4.1 1.7-4.1 4.2v16.4c0 2.4 1.8 4.3 4.1 4.3s4-1.8 4-4.2v-8.5h-3.6V32h1.7v6.6c0 1.4-.8 2.3-2.1 2.3s-2.2-.9-2.2-2.3V22.1c0-1.4.9-2.3 2.2-2.3s2.1.8 2.1 2.3v3h1.9v-3c0-2.5-1.6-4.2-4-4.2M67.4 36.1L69 24.4l1.5 11.7h-3.1zM70 18.2h-2.1l-3.3 24.2h1.9l.6-4.5h3.6l.5 4.5h1.9L70 18.2zM17.6 62.4l.7-.1-.8-3.8-1.1.2.2.8-.7.1-.3-1.3 4.2-.9.3 1.4-.6.1-.2-.8-1.1.2.8 3.8.6-.1.1.6-2 .4M24.9 58.1c-.1-.6-.6-.8-1.4-.7l-.6.1.3 1.8c.1 0 .3 0 .6-.1.7 0 1.2-.5 1.1-1.1m-2.7 3.4l.6-.1-.6-3.8-.6.1-.1-.6 1.9-.3c1.1-.2 2 .2 2.1 1.2.1.7-.3 1.2-.8 1.5l1.2 1.4.6-.1.1.6-1.1.2-1.4-1.8c-.1 0-.2 0-.3.1-.2 0-.4.1-.5.1l.2 1.4.6-.1.1.6-2 .3v-.7zM31 58.7l-1-2.1-.6 2.3 1.6-.2zm-3.2 2h.5l1-4-.6.1-.1-.6 2.5-.2.1.6-.6.1 1.8 3.7h.5l.1.6h-1.8l-.1-.6.6-.1-.5-1-2 .2-.2 1.1.6-.1.1.6-1.8.2-.1-.6zM35.1 60.1h.6l-.1-3.9-1.2.1.1.8h-.7v-1.4l4.3-.2v1.4l-.6.1-.1-.9-1.1.1.2 3.9.6-.1v.6l-2 .1M40.8 60h.7v-3.9h-1.1v.8h-.7v-1.4H44v1.4h-.6v-.8h-1.2V60h.7l-.1.6h-2"/><g fill="#FFF"><path d="M49.7 58.4c.1-1.1-.7-2-1.7-2.1-1.1-.1-1.9.7-2 1.9-.1 1.1.7 2 1.7 2.1 1.1 0 1.9-.8 2-1.9m-4.5-.3c.1-1.5 1.3-2.6 2.8-2.5s2.5 1.3 2.4 2.8-1.3 2.6-2.8 2.5c-1.5-.1-2.5-1.3-2.4-2.8M54.9 57.9c.1-.6-.4-.9-1.1-1l-.6-.1-.2 1.8c.1 0 .3.1.6.1.7.1 1.2-.2 1.3-.8m-3.5 2.6l.6.1.5-3.8-.6-.1.1-.6 1.9.2c1.1.1 1.8.8 1.7 1.7-.1.7-.6 1.1-1.2 1.3l.8 1.7.6.1-.1.6-1.1-.1-.9-2.1h-.3c-.2 0-.4-.1-.5-.1l-.2 1.4.6.1-.1.6-2-.2.2-.8z"/></g><path fill="#FFF" d="M57.2 61.2l.7.1.6-3.8-.7-.1.1-.6 2 .3-.1.6-.6-.1-.6 3.8.6.1-.1.7-2-.4M64.2 60.8l-.3-2.3-1.2 2 1.5.3zm-3.6 1l.5.1 2.2-3.5-.6-.1.1-.6 2.5.5-.1.6-.6-.1.6 4.1.5.1-.1.6-1.8-.5.1-.6.6.1-.2-1.1-2-.4-.6 1 .6.1-.1.6-1.8-.4.2-.5z"/><g fill="#FFF"><path d="M71.4 64.9c-.1 0-.8-.1-1.4.4-.3.3-.4.6-.4.8 0 .2.1.9.9.9.5 0 .9-.4.9-.9 0-.2-.1-.5-.3-.6h.2c.6.1 1.2.5 1.2 1.4 0 .4-.1.8-.4 1-.3.3-.7.4-1.1.4-.2 0-.5-.1-.9-.2-.2 0-.3-.1-.5-.1-.3-.1-.7-.2-1.2-.3-4.3-1-14.4-3.4-27.7-3.4S17.3 66.7 13 67.7c-.5.1-.9.2-1.2.3-.2 0-.3.1-.5.1-.4.1-.7.2-.9.2-.4 0-.8-.2-1.1-.4-.3-.3-.4-.6-.4-1 0-.9.6-1.3 1.2-1.4h.2c-.2.2-.3.4-.3.6 0 .5.4.9.9.9.3 0 .6-.2.8-.5.1-.1.1-.3.1-.4 0-.2 0-.3-.1-.4s-.1-.3-.3-.4c-.5-.4-1.3-.4-1.4-.4-.9.1-1.7.8-1.7 2 0 .6.2 1.1.6 1.5.4.4.9.6 1.5.6.2 0 .6-.1 1-.2.1 0 .3-.1.5-.1.3-.1.7-.2 1.2-.3 4.3-1 14.4-3.4 27.6-3.4s23.3 2.4 27.6 3.4c.5.1.9.2 1.2.3.2 0 .3.1.5.1.4.1.8.2 1 .2.6 0 1.1-.2 1.5-.6s.6-.9.6-1.5c.1-1.2-.8-1.9-1.7-2M10.9 56.9c-.2-.1-.6-.2-.9 0-.4.3-.5.8-.3 1.3.1.2.3.3.6.4-.1 0-.1.1-.1.1-.6.3-1.3.3-1.8-.5-.4-.6-.3-1.6.3-2 .1-.1.3-.2.3-.2.5-.2.9-.3.9-.3.1 0 9.9-2.5 17.7-3.4l-.1-.6c-7.8.9-17.7 3.4-17.8 3.4 0 0-.5.1-1 .3 0 0-.3.2-.5.3-.8.6-1 1.9-.4 2.8.4.6 1.1.9 1.6.9 1.1 0 1.7-.7 1.8-1.3.2-.1.3-.8-.3-1.2M70.7 56.9c.2-.1.6-.2.9 0 .4.3.5.8.3 1.3-.1.2-.3.3-.6.4.1 0 .1.1.1.1.5.3 1.3.2 1.8-.5.4-.6.3-1.6-.3-2-.1-.1-.3-.2-.4-.2-.5-.2-.9-.3-.9-.3-.1 0-9.9-2.5-17.7-3.4l.1-.6c7.8.9 17.7 3.4 17.8 3.4 0 0 .5.1 1 .3 0 0 .3.2.5.3.8.6 1 1.9.4 2.8-.4.6-1.1.9-1.6.9-1.1 0-1.7-.7-1.8-1.3-.1-.1-.2-.8.4-1.2"/><path d="M10.6 70.5l-.2-.5c.4-.1.8-.2 1.4-.4.3-.1.7-.2 1.2-.3 4.3-1 14.4-3.4 27.7-3.4s23.4 2.4 27.7 3.4c.5.1.9.2 1.2.3.6.1 1 .2 1.4.4v.5c-.4-.1-.8-.2-1.4-.4-.3-.1-.7-.2-1.2-.3-4.3-1-14.4-3.4-27.6-3.4s-23.3 2.4-27.6 3.4c-.5.1-.9.2-1.2.3-.6.2-1 .3-1.4.4"/></g><path fill="#FFF" d="M8.1 48.9h18.8v.6H8.1z"/><path fill="#FFF" d="M31.4 48.9c0-.4-.2-.8-.5-1.1-.6-.5-1.4-.5-1.6-.4H8.1v.6h21.2s.7-.1 1.1.3c.2.2.3.4.3.6 0 .2-.1.5-.2.7-.1.1-.3.2-.6.2s-.5-.1-.7-.2c-.1-.1-.2-.3-.2-.4h-.6c0 .3.1.6.3.8.2.2.5.4 1.1.4.4 0 .8-.1 1-.4.4-.3.6-.7.6-1.1M54.6 48.9h18.8v.6H54.6z"/><path fill="#FFF" d="M52.3 47.4c-.1 0-1 0-1.6.4-.3.3-.5.6-.5 1.1 0 .4.1.8.4 1.1.3.3.6.4 1 .4.6 0 .9-.2 1.1-.4.2-.2.3-.5.3-.8h-.6c0 .1-.1.3-.2.4-.1.1-.4.2-.7.2-.2 0-.4-.1-.6-.2-.2-.2-.3-.4-.2-.7 0-.3.1-.5.3-.6.4-.4 1.1-.3 1.1-.3h21.2v-.6h-21zM8.2 11.1H27v.6H8.2z"/><path fill="#FFF" d="M31 10.6c-.3-.3-.6-.4-1-.4-.6 0-.9.2-1.1.4s-.3.5-.3.8h.6c0-.2.1-.3.2-.4.1-.1.4-.2.7-.2.2 0 .4.1.6.2.2.2.3.4.2.7 0 .3-.1.5-.3.6-.4.4-1.1.3-1.1.3H8.3v.6h21.2c.1 0 1 0 1.6-.4.3-.3.5-.6.5-1-.2-.5-.4-.9-.6-1.2M54.6 11.1h18.8v.6H54.6z"/><path fill="#FFF" d="M52.3 12.6s-.8.1-1.2-.3c-.2-.2-.3-.4-.3-.6 0-.2.1-.5.2-.7.1-.1.3-.2.6-.2s.5.1.7.2c.1.1.2.3.2.4h.5c0-.3-.1-.6-.3-.8s-.5-.4-1.1-.4c-.4 0-.8.1-1 .4-.3.3-.4.7-.4 1.1 0 .4.2.8.5 1.1.6.5 1.4.5 1.6.4h21.2v-.6H52.3z"/></svg>