<svg xmlns="http://www.w3.org/2000/svg" width="687191.471" height="145063.461" viewBox="0 0 644.24201 135.997"><g fill="#004D43"><path d="M446.3 94.7V68.133L0 68.035V94.61"/><path d="M626.215 117.577c-11.334 12.03-26.64 18.387-44.05 18.387-26.2.69-41.343-9.607-49.376-17.99-9.605-9.863-14.716-23.273-14.593-36.873h26.523c-.123 6.73 2.494 13.552 7.152 18.41 6.28 6.435 16.285 9.837 29.182 9.837 10.65.046 19.326-3.153 25.836-10.06 7.096-7.544 11.39-19.472 10.748-30.47-.676-12.314-4.838-21.59-12.705-28.436-18.428-16.128-51.09-13.61-51.408-13.59l-.62.033L0 26.525V0l551.824.245c5.842-.393 44.814-2.212 70.47 19.967 13.464 11.64 20.778 27.535 21.84 47.13 1.06 18.443-5.677 37.25-17.92 50.235"/></g></svg>