<svg xmlns="http://www.w3.org/2000/svg" width="687193.625" height="145064.53" viewBox="0 0 644.24401 135.998"><g fill="#004D43"><path d="M197.94 68.133l446.303-.098V94.61l-446.302.09"/><path d="M18.028 117.578c11.333 12.03 26.64 18.387 44.05 18.387 26.2.69 41.343-9.607 49.376-17.99 9.604-9.863 14.715-23.273 14.59-36.873h-26.52c.122 6.73-2.496 13.55-7.154 18.41-6.28 6.434-16.285 9.836-29.182 9.836-10.65.046-19.325-3.153-25.836-10.06-7.095-7.544-11.388-19.472-10.747-30.47.676-12.314 4.838-21.59 12.705-28.436 18.428-16.13 51.09-13.61 51.407-13.592l.62.034 552.907-.3V0L92.42.245c-5.843-.393-44.816-2.212-70.472 19.967C8.485 31.852 1.17 47.747.108 67.342c-1.06 18.444 5.677 37.25 17.92 50.236"/></g></svg>