<svg id="Layer_1" xmlns="http://www.w3.org/2000/svg" viewBox="-619 1047.6 274.7 29.9"><style>.st0{fill:none;stroke:#004D43;stroke-width:1.0263;} .st1{fill:#004D43;} .st2{fill:none;stroke:#004D43;stroke-width:0.2737;stroke-miterlimit:10;} .st3{fill:none;stroke:#004D43;stroke-width:0.6842;} .st4{enable-background:new ;}</style><path class="st0" d="M-558.5 1064.1v12.9h153.3v-12.9"/><path class="st1" d="M-618.9 1056c0 .7.2 1.4.7 1.9s1.2.7 1.8.7h58v-.7h-58c-.5 0-1.8-.4-1.8-1.9 0-1.1.7-1.6 1.4-1.7 1.3 0 1.6 1.3 1.6 1.5h.7c.1-.3-.1-1-.7-1.6-.7-.7-1.6-.5-1.6-.5-1 .1-2.1.9-2.1 2.3"/><path class="st2" d="M-618.9 1056c0 .7.2 1.4.7 1.9s1.2.7 1.8.7h58v-.7h-58c-.5 0-1.8-.4-1.8-1.9 0-1.1.7-1.6 1.4-1.7 1.3 0 1.6 1.3 1.6 1.5h.7c.1-.3-.1-1-.7-1.6-.7-.7-1.6-.5-1.6-.5-1 .1-2.1.9-2.1 2.3z"/><path class="st1" d="M-615.5 1057c.6 0 1.1-.5 1.1-1.1s-.5-1.1-1.1-1.1c-.6 0-1.1.4-1.1 1.1 0 .6.5 1.1 1.1 1.1"/><path class="st3" d="M-616.9 1060.7h58.5"/><path class="st1" d="M-618.9 1069.1c0-.7.2-1.4.7-1.8.5-.5 1.1-.7 1.8-.7h58v.7h-58c-.5 0-1.8.4-1.8 1.9 0 1.1.7 1.6 1.4 1.7 1.3.1 1.6-1.2 1.5-1.4h.7c.1.3-.1 1-.7 1.6-.7.6-1.6.5-1.6.5-.9-.2-2-1.1-2-2.5"/><path class="st2" d="M-618.9 1069.1c0-.7.2-1.4.7-1.8.5-.5 1.1-.7 1.8-.7h58v.7h-58c-.5 0-1.8.4-1.8 1.9 0 1.1.7 1.6 1.4 1.7 1.3.1 1.6-1.2 1.5-1.4h.7c.1.3-.1 1-.7 1.6-.7.6-1.6.5-1.6.5-.9-.2-2-1.1-2-2.5z"/><path class="st1" d="M-615.5 1068.1c.6 0 1.1.5 1.1 1.1s-.5 1.1-1.1 1.1c-.6 0-1.1-.5-1.1-1.1s.5-1.1 1.1-1.1"/><path class="st3" d="M-616.9 1064.4h58.5"/><path class="st1" d="M-344.5 1056c0 .7-.2 1.4-.7 1.9s-1.1.7-1.8.7h-58.6v-.7h58.6c.5 0 1.8-.4 1.8-1.9 0-1.1-.7-1.6-1.4-1.7-1.3-.1-1.6 1.2-1.5 1.4h-.7c-.1-.3.1-1 .7-1.6.7-.6 1.6-.5 1.6-.5.9.2 2 1 2 2.4"/><path class="st2" d="M-344.5 1056c0 .7-.2 1.4-.7 1.9s-1.1.7-1.8.7h-58.6v-.7h58.6c.5 0 1.8-.4 1.8-1.9 0-1.1-.7-1.6-1.4-1.7-1.3-.1-1.6 1.2-1.5 1.4h-.7c-.1-.3.1-1 .7-1.6.7-.6 1.6-.5 1.6-.5.9.2 2 1 2 2.4z"/><path class="st1" d="M-347.9 1057c-.6 0-1.1-.5-1.1-1.1s.5-1.1 1.1-1.1 1.1.5 1.1 1.1-.5 1.1-1.1 1.1"/><path class="st3" d="M-346.5 1060.7h-58.7"/><g><path class="st1" d="M-344.5 1069.1c0-.7-.2-1.4-.7-1.8-.5-.5-1.1-.7-1.8-.7h-58.3v.7h58.3c.5 0 1.8.4 1.8 1.9 0 1.1-.7 1.6-1.4 1.7-1.3.1-1.6-1.2-1.5-1.4h-.7c-.1.3.1 1 .7 1.6.7.6 1.6.5 1.6.5.9-.2 2-1.1 2-2.5"/><path class="st2" d="M-344.5 1069.1c0-.7-.2-1.4-.7-1.8-.5-.5-1.1-.7-1.8-.7h-58.3v.7h58.3c.5 0 1.8.4 1.8 1.9 0 1.1-.7 1.6-1.4 1.7-1.3.1-1.6-1.2-1.5-1.4h-.7c-.1.3.1 1 .7 1.6.7.6 1.6.5 1.6.5.9-.2 2-1.1 2-2.5z"/><path class="st1" d="M-347.9 1068.1c-.6 0-1.1.5-1.1 1.1s.5 1.1 1.1 1.1 1.1-.5 1.1-1.1-.5-1.1-1.1-1.1"/></g><path class="st3" d="M-346.5 1064.4h-58.7"/><path class="st0" d="M-405.2 1061.1v-13h-153.3v13"/><g class="st4"><path class="st1" d="M-534.3 1066.2h1.1v-6.4h-1.1v-1.4h3.6c2.1 0 3.6.9 3.6 2.8 0 1.2-.7 2.1-1.7 2.5l1.4 2.5h1.1v1.4h-2.1l-1.8-3.5h-1.4v2.1h1.1v1.4h-3.8v-1.4zm5.6-5c0-1-.8-1.4-2.1-1.4h-.9v3h.9c1.2 0 2.1-.6 2.1-1.6zM-525.6 1066.2h1.1v-6.4h-1.1v-1.4h6.9v2.6h-1.5v-1.2h-2.7v2.5h2.8v1.3h-2.8v2.6h2.7v-1.2h1.5v2.6h-6.9v-1.4zM-517.7 1065.6c0-.7.4-1.1 1-1.1s1 .5 1 .9c0 .2 0 .4-.1.6.3.2.9.4 1.5.4 1 0 1.7-.4 1.7-1.2 0-.8-.8-1.1-1.7-1.4-1.7-.6-2.9-1.2-2.9-2.9 0-1.5 1.2-2.6 3.1-2.6 1.7 0 3.1.9 3.1 2 0 .7-.4 1-.9 1-.6 0-1-.5-1-.9 0-.2 0-.3.1-.4-.3-.2-.6-.3-1.2-.3-.9 0-1.4.5-1.4 1.1 0 .8.8 1.1 1.7 1.4 1.7.6 2.9 1.2 2.9 2.9 0 1.8-1.4 2.7-3.2 2.7-2.2-.1-3.7-1.1-3.7-2.2zM-508.3 1066.2h1.1v-6.4h-1.7v1.5h-1.5v-2.8h8v2.8h-1.5v-1.5h-1.7v6.4h1.1v1.4h-3.9v-1.4zM-502.6 1066.2h.8l2.3-6.4h-1v-1.4h5.2v1.4h-1l2.3 6.4h.8v1.4h-3.5v-1.4h1.1l-.5-1.5h-3.4l-.5 1.5h1.1v1.4h-3.5v-1.4zm6-2.9l-1.3-3.6-1.3 3.6h2.6zM-492 1064.2v-4.4h-1v-1.4h3.7v1.4h-1.1v4.4c0 1.4.7 2.2 1.9 2.2s1.9-.7 1.9-2.1v-4.4h-1.1v-1.4h3.7v1.4h-1v4.4c0 2.4-1.4 3.6-3.4 3.6-2.2-.2-3.6-1.3-3.6-3.7zM-483.2 1066.2h1.1v-6.4h-1.1v-1.4h3.6c2.1 0 3.6.9 3.6 2.8 0 1.2-.7 2.1-1.7 2.5l1.4 2.5h1.1v1.4h-2.1l-1.8-3.5h-1.4v2.1h1.1v1.4h-3.8v-1.4zm5.5-5c0-1-.8-1.4-2.1-1.4h-.9v3h.9c1.3 0 2.1-.6 2.1-1.6zM-474.9 1066.2h.8l2.3-6.4h-1v-1.4h5.2v1.4h-1l2.3 6.4h.8v1.4h-3.5v-1.4h1.1l-.5-1.5h-3.4l-.5 1.5h1.1v1.4h-3.5v-1.4zm6-2.9l-1.3-3.6-1.3 3.6h2.6zM-462.2 1061.2v4.9h1.1v1.4h-3.7v-1.4h1.1v-6.4h-1.1v-1.4h2.4l4.5 5.8v-4.4h-1.1v-1.4h3.7v1.4h-1v7.8h-.9l-5-6.3zM-452.5 1066.2h1.1v-6.4h-1.7v1.5h-1.5v-2.8h8v2.8h-1.5v-1.5h-1.7v6.4h1.1v1.4h-3.9v-1.4zM-445.8 1066.2h1.1v-6.4h-1.1v-1.4h6.9v2.6h-1.5v-1.2h-2.7v2.5h2.8v1.3h-2.8v2.6h2.7v-1.2h1.5v2.6h-6.9v-1.4zM-437.9 1065.6c0-.7.4-1.1 1-1.1s1 .5 1 .9c0 .2 0 .4-.1.6.3.2.9.4 1.5.4 1 0 1.7-.4 1.7-1.2 0-.8-.8-1.1-1.7-1.4-1.7-.6-2.9-1.2-2.9-2.9 0-1.5 1.2-2.6 3.1-2.6 1.7 0 3.1.9 3.1 2 0 .7-.4 1-.9 1-.6 0-1-.5-1-.9 0-.2 0-.3.1-.4-.3-.2-.6-.3-1.2-.3-.9 0-1.4.5-1.4 1.1 0 .8.8 1.1 1.7 1.4 1.7.6 2.9 1.2 2.9 2.9 0 1.8-1.4 2.7-3.2 2.7-2.2-.1-3.7-1.1-3.7-2.2z"/></g><text transform="translate(-534.805 1026.454)" class="st1" font-family="Archer-Bold" font-size="14">RESTAURANTES</text></svg>